<svg xmlns="http://www.w3.org/2000/svg" width="934.56" height="578.00" viewBox="0 0 934.56 578.00">
  <defs>
    <marker id="arrowhead" markerWidth="10" markerHeight="7" refX="9" refY="3.5" orient="auto">
      <polygon points="0 0, 10 3.5, 0 7" fill="#64748B"/>
    </marker>
    <marker id="arrowhead-open" markerWidth="12" markerHeight="9" refX="11" refY="4.50" orient="auto">
      <polygon points="0 0, 12 4.50, 0 9" fill="#FFFFFF" stroke="#64748B" stroke-width="1.50"/>
    </marker>
    <marker id="arrowhead-filled-diamond" markerWidth="14" markerHeight="9" refX="1" refY="4.50" orient="auto">
      <polygon points="1 4.50, 7 1, 13 4.50, 7 8" fill="#64748B"/>
    </marker>
    <marker id="arrowhead-open-diamond" markerWidth="14" markerHeight="9" refX="1" refY="4.50" orient="auto">
      <polygon points="1 4.50, 7 1, 13 4.50, 7 8" fill="#FFFFFF" stroke="#64748B" stroke-width="1.50"/>
    </marker>
  </defs>
  <rect width="934.56" height="578.00" fill="#FFFFFF" rx="10.00" ry="10.00"/>
  <text x="467.28" y="20.00" text-anchor="middle" font-family="&quot;Segoe UI&quot;, Inter, Arial, sans-serif" font-size="15.00" font-weight="bold" fill="#111827">Prism Launch Target</text>
  <path d="M 477.20,218.99 C 499.81,218.99 557.38,184.91 580.00,184.91" fill="none" stroke="#3C424E" stroke-width="2.62" stroke-linecap="round"   />
  <path d="M 439.50,289.00 C 470.41,289.00 549.09,289.00 580.00,289.00" fill="none" stroke="#3C424E" stroke-width="2.62" stroke-linecap="round"   />
  <path d="M 384.18,328.17 C 426.18,328.17 538.00,393.09 580.00,393.09" fill="none" stroke="#3C424E" stroke-width="2.62" stroke-linecap="round"   />
  <g transform="translate(24.00,47.00)">
    <defs>
      <linearGradient id="node-0-stroke-gradient" x1="0%" y1="0%" x2="100%" y2="0%">
        <stop offset="0%" stop-color="#2563EB"/>
        <stop offset="33%" stop-color="#7C3AED"/>
        <stop offset="67%" stop-color="#DB2777"/>
        <stop offset="100%" stop-color="#F59E0B"/>
      </linearGradient>
    </defs>
    <circle cx="242.00" cy="242.00" r="222.50" fill="none" stroke="url(#node-0-stroke-gradient)" stroke-width="39.00"/>
    <circle cx="242.00" cy="242.00" r="203.00" fill="none" stroke="#888888" stroke-width="0.80"/>
    <circle cx="242.00" cy="242.00" r="242.00" fill="none" stroke="#888888" stroke-width="0.80"/>
  </g>
  <g transform="translate(73.00,96.00)">
    <defs>
      <linearGradient id="node-1-stroke-gradient" x1="0%" y1="0%" x2="100%" y2="0%">
        <stop offset="0%" stop-color="#2563EB"/>
        <stop offset="33%" stop-color="#7C3AED"/>
        <stop offset="67%" stop-color="#DB2777"/>
        <stop offset="100%" stop-color="#F59E0B"/>
      </linearGradient>
    </defs>
    <circle cx="193.00" cy="193.00" r="173.50" fill="none" stroke="url(#node-1-stroke-gradient)" stroke-width="39.00"/>
    <circle cx="193.00" cy="193.00" r="154.00" fill="none" stroke="#888888" stroke-width="0.80"/>
    <circle cx="193.00" cy="193.00" r="193.00" fill="none" stroke="#888888" stroke-width="0.80"/>
  </g>
  <g transform="translate(122.00,145.00)">
    <defs>
      <linearGradient id="node-2-stroke-gradient" x1="0%" y1="0%" x2="100%" y2="0%">
        <stop offset="0%" stop-color="#2563EB"/>
        <stop offset="33%" stop-color="#7C3AED"/>
        <stop offset="67%" stop-color="#DB2777"/>
        <stop offset="100%" stop-color="#F59E0B"/>
      </linearGradient>
    </defs>
    <circle cx="144.00" cy="144.00" r="124.50" fill="none" stroke="url(#node-2-stroke-gradient)" stroke-width="39.00"/>
    <circle cx="144.00" cy="144.00" r="105.00" fill="none" stroke="#888888" stroke-width="0.80"/>
    <circle cx="144.00" cy="144.00" r="144.00" fill="none" stroke="#888888" stroke-width="0.80"/>
  </g>
  <g transform="translate(179.00,202.00)">
    <ellipse cx="87.00" cy="87.00" rx="87.00" ry="87.00" fill="#1C4091" stroke="#2E4F9A" stroke-width="1.50"/>
    <text x="87.00" y="91.90" text-anchor="middle" font-family="&quot;Segoe UI&quot;, Inter, Arial, sans-serif" font-size="14.00" fill="#F8FAFC">Launch</text>
  </g>
  <g transform="translate(580.00,143.87)">
    <defs>
      <linearGradient id="target-card_0-accent" x1="0%" y1="0%" x2="100%" y2="0%">
        <stop offset="0%" stop-color="#2563EB"/>
        <stop offset="33%" stop-color="#7C3AED"/>
        <stop offset="67%" stop-color="#DB2777"/>
        <stop offset="100%" stop-color="#F59E0B"/>
      </linearGradient>
    </defs>
    <rect x="0" y="0" width="330.56" height="82.09" rx="12.50" ry="12.50" fill="#FFFFFF" stroke="none"/>
    <rect x="0" y="0" width="330.56" height="82.09" rx="12.50" ry="12.50" fill="none" stroke="#888888" stroke-width="0.80"/>
    <rect x="1.67" y="1.67" width="327.21" height="78.74" rx="10.82" ry="10.82" fill="none" stroke="url(#target-card_0-accent)" stroke-width="2.55"/>
    <rect x="12.00" y="16.00" width="14.00" height="50.09" rx="7.00" ry="7.00" fill="#96A0B0" stroke="none"/>
    <text x="44.60" y="28.40" text-anchor="start" font-family="&quot;Segoe UI&quot;, Inter, Arial, sans-serif" font-size="14.60" font-weight="bold" fill="#111827">Outer ring</text>
    <text x="44.60" y="42.43" text-anchor="start" font-family="&quot;Segoe UI&quot;, Inter, Arial, sans-serif" font-size="12.20" fill="#64748B">Marketing, partnerships, and community</text>
    <text x="44.60" y="60.12" text-anchor="start" font-family="&quot;Segoe UI&quot;, Inter, Arial, sans-serif" font-size="12.20" fill="#64748B">outreach</text>
  </g>
  <g transform="translate(580.00,247.96)">
    <defs>
      <linearGradient id="target-card_1-accent" x1="0%" y1="0%" x2="100%" y2="0%">
        <stop offset="0%" stop-color="#2563EB"/>
        <stop offset="33%" stop-color="#7C3AED"/>
        <stop offset="67%" stop-color="#DB2777"/>
        <stop offset="100%" stop-color="#F59E0B"/>
      </linearGradient>
    </defs>
    <rect x="0" y="0" width="308.60" height="82.09" rx="12.50" ry="12.50" fill="#FFFFFF" stroke="none"/>
    <rect x="0" y="0" width="308.60" height="82.09" rx="12.50" ry="12.50" fill="none" stroke="#888888" stroke-width="0.80"/>
    <rect x="1.67" y="1.67" width="305.25" height="78.74" rx="10.82" ry="10.82" fill="none" stroke="url(#target-card_1-accent)" stroke-width="2.55"/>
    <rect x="12.00" y="16.00" width="14.00" height="50.09" rx="7.00" ry="7.00" fill="#F6A41A" stroke="none"/>
    <text x="44.60" y="28.40" text-anchor="start" font-family="&quot;Segoe UI&quot;, Inter, Arial, sans-serif" font-size="14.60" font-weight="bold" fill="#111827">Middle ring</text>
    <text x="44.60" y="42.43" text-anchor="start" font-family="&quot;Segoe UI&quot;, Inter, Arial, sans-serif" font-size="12.20" fill="#64748B">Engineering reviews, QA cycles, and</text>
    <text x="44.60" y="60.12" text-anchor="start" font-family="&quot;Segoe UI&quot;, Inter, Arial, sans-serif" font-size="12.20" fill="#64748B">staging gates</text>
  </g>
  <g transform="translate(580.00,352.05)">
    <defs>
      <linearGradient id="target-card_2-accent" x1="0%" y1="0%" x2="100%" y2="0%">
        <stop offset="0%" stop-color="#2563EB"/>
        <stop offset="33%" stop-color="#7C3AED"/>
        <stop offset="67%" stop-color="#DB2777"/>
        <stop offset="100%" stop-color="#F59E0B"/>
      </linearGradient>
    </defs>
    <rect x="0" y="0" width="308.60" height="82.09" rx="12.50" ry="12.50" fill="#FFFFFF" stroke="none"/>
    <rect x="0" y="0" width="308.60" height="82.09" rx="12.50" ry="12.50" fill="none" stroke="#888888" stroke-width="0.80"/>
    <rect x="1.67" y="1.67" width="305.25" height="78.74" rx="10.82" ry="10.82" fill="none" stroke="url(#target-card_2-accent)" stroke-width="2.55"/>
    <rect x="12.00" y="16.00" width="14.00" height="50.09" rx="7.00" ry="7.00" fill="#AF39A1" stroke="none"/>
    <text x="44.60" y="28.40" text-anchor="start" font-family="&quot;Segoe UI&quot;, Inter, Arial, sans-serif" font-size="14.60" font-weight="bold" fill="#111827">Inner ring</text>
    <text x="44.60" y="42.43" text-anchor="start" font-family="&quot;Segoe UI&quot;, Inter, Arial, sans-serif" font-size="12.20" fill="#64748B">Feature freeze, final sign-off, and</text>
    <text x="44.60" y="60.12" text-anchor="start" font-family="&quot;Segoe UI&quot;, Inter, Arial, sans-serif" font-size="12.20" fill="#64748B">deploy</text>
  </g>
  <path d="M 477.20,218.99 C 499.81,218.99 557.38,184.91 580.00,184.91" fill="none" stroke="#FFFFFF" stroke-width="3.98" stroke-linecap="butt" stroke-linejoin="round" pathLength="100" stroke-dasharray="0 18.73 74.81 6.46" />
  <path d="M 477.20,218.99 C 499.81,218.99 557.38,184.91 580.00,184.91" fill="none" stroke="#3C424E" stroke-width="2.62" stroke-linecap="butt" stroke-linejoin="round" pathLength="100" stroke-dasharray="0 18.73 74.81 6.46"   />
  <path d="M 439.50,289.00 C 470.41,289.00 549.09,289.00 580.00,289.00" fill="none" stroke="#FFFFFF" stroke-width="3.98" stroke-linecap="butt" stroke-linejoin="round" pathLength="100" stroke-dasharray="0 14.43 80.58 4.98" />
  <path d="M 439.50,289.00 C 470.41,289.00 549.09,289.00 580.00,289.00" fill="none" stroke="#3C424E" stroke-width="2.62" stroke-linecap="butt" stroke-linejoin="round" pathLength="100" stroke-dasharray="0 14.43 80.58 4.98"   />
  <path d="M 384.18,328.17 C 426.18,328.17 538.00,393.09 580.00,393.09" fill="none" stroke="#FFFFFF" stroke-width="3.98" stroke-linecap="butt" stroke-linejoin="round" pathLength="100" stroke-dasharray="0 9.83 86.78 3.39" />
  <path d="M 384.18,328.17 C 426.18,328.17 538.00,393.09 580.00,393.09" fill="none" stroke="#3C424E" stroke-width="2.62" stroke-linecap="butt" stroke-linejoin="round" pathLength="100" stroke-dasharray="0 9.83 86.78 3.39"   />
</svg>
