<svg xmlns="http://www.w3.org/2000/svg" width="1593.60" height="808.02" viewBox="0 0 1593.60 808.02">
  <defs>
    <marker id="arrowhead" markerWidth="10" markerHeight="7" refX="9" refY="3.5" orient="auto">
      <polygon points="0 0, 10 3.5, 0 7" fill="#64748B"/>
    </marker>
    <marker id="arrowhead-open" markerWidth="12" markerHeight="9" refX="11" refY="4.50" orient="auto">
      <polygon points="0 0, 12 4.50, 0 9" fill="#FFFFFF" stroke="#64748B" stroke-width="1.50"/>
    </marker>
    <marker id="arrowhead-filled-diamond" markerWidth="14" markerHeight="9" refX="1" refY="4.50" orient="auto">
      <polygon points="1 4.50, 7 1, 13 4.50, 7 8" fill="#64748B"/>
    </marker>
    <marker id="arrowhead-open-diamond" markerWidth="14" markerHeight="9" refX="1" refY="4.50" orient="auto">
      <polygon points="1 4.50, 7 1, 13 4.50, 7 8" fill="#FFFFFF" stroke="#64748B" stroke-width="1.50"/>
    </marker>
  </defs>
  <rect width="1593.60" height="808.02" fill="#FFFFFF" rx="10.00" ry="10.00"/>
  <text x="796.80" y="52.85" text-anchor="middle" font-family="&quot;Segoe UI&quot;, Inter, Arial, sans-serif" font-size="28.85" font-weight="bold" fill="#111827">The Incredibles Arc</text>
  <defs>
    <linearGradient id="snake-gradient" x1="0%" y1="0%" x2="100%" y2="0%">
      <stop offset="3.33%" stop-color="#2563EB"/>
      <stop offset="16.67%" stop-color="#2563EB"/>
      <stop offset="23.33%" stop-color="#4A51EC"/>
      <stop offset="36.67%" stop-color="#4A51EC"/>
      <stop offset="43.33%" stop-color="#7040ED"/>
      <stop offset="56.67%" stop-color="#7040ED"/>
      <stop offset="63.33%" stop-color="#9735CB"/>
      <stop offset="76.67%" stop-color="#9735CB"/>
      <stop offset="83.33%" stop-color="#C02C99"/>
      <stop offset="96.67%" stop-color="#C02C99"/>
    </linearGradient>
  </defs>
  <path d="M 24.00,424.21 A 154.56 154.56 0 0 1 333.12,424.21 A 154.56 154.56 0 0 0 642.24,424.21 A 154.56 154.56 0 0 1 951.36,424.21 A 154.56 154.56 0 0 0 1260.48,424.21 A 154.56 154.56 0 0 1 1569.60,424.21" fill="none" stroke="#FFFFFF" stroke-width="51.34" stroke-linecap="round" stroke-linejoin="round"/>
  <path d="M 24.00,424.21 A 154.56 154.56 0 0 1 333.12,424.21 A 154.56 154.56 0 0 0 642.24,424.21 A 154.56 154.56 0 0 1 951.36,424.21 A 154.56 154.56 0 0 0 1260.48,424.21 A 154.56 154.56 0 0 1 1569.60,424.21" fill="none" stroke="url(#snake-gradient)" stroke-width="45.34" stroke-linecap="round" stroke-linejoin="round"/>
  <text x="178.56" y="590.77" text-anchor="middle" font-family="&quot;Segoe UI&quot;, Inter, Arial, sans-serif" font-size="24.52" fill="#64748B">Mr. Incredible is the</text>
  <text x="178.56" y="622.65" text-anchor="middle" font-family="&quot;Segoe UI&quot;, Inter, Arial, sans-serif" font-size="24.52" fill="#64748B">world's top superhero</text>
  <text x="487.68" y="225.76" text-anchor="middle" font-family="&quot;Segoe UI&quot;, Inter, Arial, sans-serif" font-size="24.52" fill="#64748B">Supers are banned and Bob</text>
  <text x="487.68" y="257.65" text-anchor="middle" font-family="&quot;Segoe UI&quot;, Inter, Arial, sans-serif" font-size="24.52" fill="#64748B">sells insurance</text>
  <text x="796.80" y="590.77" text-anchor="middle" font-family="&quot;Segoe UI&quot;, Inter, Arial, sans-serif" font-size="24.52" fill="#64748B">Syndrome lures Bob to</text>
  <text x="796.80" y="622.65" text-anchor="middle" font-family="&quot;Segoe UI&quot;, Inter, Arial, sans-serif" font-size="24.52" fill="#64748B">Nomanisan Island</text>
  <text x="1105.92" y="225.76" text-anchor="middle" font-family="&quot;Segoe UI&quot;, Inter, Arial, sans-serif" font-size="24.52" fill="#64748B">The whole Parr family suits</text>
  <text x="1105.92" y="257.65" text-anchor="middle" font-family="&quot;Segoe UI&quot;, Inter, Arial, sans-serif" font-size="24.52" fill="#64748B">up together</text>
  <text x="1415.04" y="590.77" text-anchor="middle" font-family="&quot;Segoe UI&quot;, Inter, Arial, sans-serif" font-size="24.52" fill="#64748B">The Incredibles defeat the</text>
  <text x="1415.04" y="622.65" text-anchor="middle" font-family="&quot;Segoe UI&quot;, Inter, Arial, sans-serif" font-size="24.52" fill="#64748B">Omnidroid</text>
  <g transform="translate(75.52,321.17)">
    <defs>
      <linearGradient id="node-0-stroke-gradient" x1="0%" y1="0%" x2="100%" y2="0%">
        <stop offset="0%" stop-color="#2563EB"/>
        <stop offset="33%" stop-color="#7C3AED"/>
        <stop offset="67%" stop-color="#DB2777"/>
        <stop offset="100%" stop-color="#F59E0B"/>
      </linearGradient>
    </defs>
    <ellipse cx="103.04" cy="103.04" rx="103.04" ry="103.04" fill="#2563EB" stroke="url(#node-0-stroke-gradient)" stroke-width="1.50"/>
    <g transform="translate(72.13,36.89)">
      <svg width="61.82" height="61.82" viewBox="0 0 24 24" overflow="visible" color="#F8FAFC">
        <path d="M11.48 3.499a.562.562 0 0 1 1.04 0l2.125 5.111a.563.563 0 0 0 .475.345l5.518.442c.499.04.701.663.321.988l-4.204 3.602a.563.563 0 0 0-.182.557l1.285 5.385a.562.562 0 0 1-.84.61l-4.725-2.885a.562.562 0 0 0-.586 0L6.982 20.54a.562.562 0 0 1-.84-.61l1.285-5.386a.562.562 0 0 0-.182-.557l-4.204-3.602a.562.562 0 0 1 .321-.988l5.518-.442a.563.563 0 0 0 .475-.345L11.48 3.5Z" fill="none" stroke="currentColor" stroke-width="1.5" stroke-linecap="round" stroke-linejoin="round" />
      </svg>
    </g>
    <text x="103.04" y="130.46" text-anchor="middle" font-family="&quot;Segoe UI&quot;, Inter, Arial, sans-serif" font-size="28.85" fill="#F8FAFC">
      <tspan x="103.04" y="130.46">Glory</tspan>
      <tspan x="103.04" dy="33.18">Days</tspan>
    </text>
  </g>
  <g transform="translate(384.64,321.17)">
    <defs>
      <linearGradient id="node-1-stroke-gradient" x1="0%" y1="0%" x2="100%" y2="0%">
        <stop offset="0%" stop-color="#2563EB"/>
        <stop offset="33%" stop-color="#7C3AED"/>
        <stop offset="67%" stop-color="#DB2777"/>
        <stop offset="100%" stop-color="#F59E0B"/>
      </linearGradient>
    </defs>
    <ellipse cx="103.04" cy="103.04" rx="103.04" ry="103.04" fill="#4A51EC" stroke="url(#node-1-stroke-gradient)" stroke-width="1.50"/>
    <g transform="translate(72.13,36.89)">
      <svg width="61.82" height="61.82" viewBox="0 0 24 24" overflow="visible" color="#F8FAFC">
        <path d="m2.25 12 8.954-8.955c.44-.439 1.152-.439 1.591 0L21.75 12M4.5 9.75v10.125c0 .621.504 1.125 1.125 1.125H9.75v-4.875c0-.621.504-1.125 1.125-1.125h2.25c.621 0 1.125.504 1.125 1.125V21h4.125c.621 0 1.125-.504 1.125-1.125V9.75M8.25 21h8.25" fill="none" stroke="currentColor" stroke-width="1.5" stroke-linecap="round" stroke-linejoin="round" />
      </svg>
    </g>
    <text x="103.04" y="130.46" text-anchor="middle" font-family="&quot;Segoe UI&quot;, Inter, Arial, sans-serif" font-size="28.85" fill="#F8FAFC">
      <tspan x="103.04" y="130.46">Forced</tspan>
      <tspan x="103.04" dy="33.18">Retirement</tspan>
    </text>
  </g>
  <g transform="translate(693.76,321.17)">
    <defs>
      <linearGradient id="node-2-stroke-gradient" x1="0%" y1="0%" x2="100%" y2="0%">
        <stop offset="0%" stop-color="#2563EB"/>
        <stop offset="33%" stop-color="#7C3AED"/>
        <stop offset="67%" stop-color="#DB2777"/>
        <stop offset="100%" stop-color="#F59E0B"/>
      </linearGradient>
    </defs>
    <ellipse cx="103.04" cy="103.04" rx="103.04" ry="103.04" fill="#7040ED" stroke="url(#node-2-stroke-gradient)" stroke-width="1.50"/>
    <g transform="translate(72.13,36.89)">
      <svg width="61.82" height="61.82" viewBox="0 0 24 24" overflow="visible" color="#F8FAFC">
        <path d="M12 9v3.75m-9.303 3.376c-.866 1.5.217 3.374 1.948 3.374h14.71c1.73 0 2.813-1.874 1.948-3.374L13.949 3.378c-.866-1.5-3.032-1.5-3.898 0L2.697 16.126ZM12 15.75h.007v.008H12v-.008Z" fill="none" stroke="currentColor" stroke-width="1.5" stroke-linecap="round" stroke-linejoin="round" />
      </svg>
    </g>
    <text x="103.04" y="130.46" text-anchor="middle" font-family="&quot;Segoe UI&quot;, Inter, Arial, sans-serif" font-size="28.85" fill="#F8FAFC">
      <tspan x="103.04" y="130.46">Secret</tspan>
      <tspan x="103.04" dy="33.18">Mission</tspan>
    </text>
  </g>
  <g transform="translate(1002.88,321.17)">
    <defs>
      <linearGradient id="node-3-stroke-gradient" x1="0%" y1="0%" x2="100%" y2="0%">
        <stop offset="0%" stop-color="#2563EB"/>
        <stop offset="33%" stop-color="#7C3AED"/>
        <stop offset="67%" stop-color="#DB2777"/>
        <stop offset="100%" stop-color="#F59E0B"/>
      </linearGradient>
    </defs>
    <ellipse cx="103.04" cy="103.04" rx="103.04" ry="103.04" fill="#9735CB" stroke="url(#node-3-stroke-gradient)" stroke-width="1.50"/>
    <g transform="translate(72.13,36.89)">
      <svg width="61.82" height="61.82" viewBox="0 0 24 24" overflow="visible" color="#F8FAFC">
        <path d="M18 18.72a9.094 9.094 0 0 0 3.741-.479 3 3 0 0 0-4.682-2.72m.94 3.198.001.031c0 .225-.012.447-.037.666A11.944 11.944 0 0 1 12 21c-2.17 0-4.207-.576-5.963-1.584A6.062 6.062 0 0 1 6 18.719m12 0a5.971 5.971 0 0 0-.941-3.197m0 0A5.995 5.995 0 0 0 12 12.75a5.995 5.995 0 0 0-5.058 2.772m0 0a3 3 0 0 0-4.681 2.72 8.986 8.986 0 0 0 3.74.477m.94-3.197a5.971 5.971 0 0 0-.94 3.197M15 6.75a3 3 0 1 1-6 0 3 3 0 0 1 6 0Zm6 3a2.25 2.25 0 1 1-4.5 0 2.25 2.25 0 0 1 4.5 0Zm-13.5 0a2.25 2.25 0 1 1-4.5 0 2.25 2.25 0 0 1 4.5 0Z" fill="none" stroke="currentColor" stroke-width="1.5" stroke-linecap="round" stroke-linejoin="round" />
      </svg>
    </g>
    <text x="103.04" y="130.46" text-anchor="middle" font-family="&quot;Segoe UI&quot;, Inter, Arial, sans-serif" font-size="28.85" fill="#F8FAFC">
      <tspan x="103.04" y="130.46">Family</tspan>
      <tspan x="103.04" dy="33.18">Assembled</tspan>
    </text>
  </g>
  <g transform="translate(1312.00,321.17)">
    <defs>
      <linearGradient id="node-4-stroke-gradient" x1="0%" y1="0%" x2="100%" y2="0%">
        <stop offset="0%" stop-color="#2563EB"/>
        <stop offset="33%" stop-color="#7C3AED"/>
        <stop offset="67%" stop-color="#DB2777"/>
        <stop offset="100%" stop-color="#F59E0B"/>
      </linearGradient>
    </defs>
    <ellipse cx="103.04" cy="103.04" rx="103.04" ry="103.04" fill="#C02C99" stroke="url(#node-4-stroke-gradient)" stroke-width="1.50"/>
    <g transform="translate(72.13,36.89)">
      <svg width="61.82" height="61.82" viewBox="0 0 24 24" overflow="visible" color="#F8FAFC">
        <path d="M9 12.75 11.25 15 15 9.75m-3-7.036A11.959 11.959 0 0 1 3.598 6 11.99 11.99 0 0 0 3 9.749c0 5.592 3.824 10.29 9 11.623 5.176-1.332 9-6.03 9-11.622 0-1.31-.21-2.571-.598-3.751h-.152c-3.196 0-6.1-1.248-8.25-3.285Z" fill="none" stroke="currentColor" stroke-width="1.5" stroke-linecap="round" stroke-linejoin="round" />
      </svg>
    </g>
    <text x="103.04" y="130.46" text-anchor="middle" font-family="&quot;Segoe UI&quot;, Inter, Arial, sans-serif" font-size="28.85" fill="#F8FAFC">
      <tspan x="103.04" y="130.46">Saving</tspan>
      <tspan x="103.04" dy="33.18">Metroville</tspan>
    </text>
  </g>
</svg>
