<svg xmlns="http://www.w3.org/2000/svg" width="831.00" height="766.00" viewBox="0 0 831.00 766.00">
  <defs>
    <marker id="arrowhead" markerWidth="10" markerHeight="7" refX="9" refY="3.5" orient="auto">
      <polygon points="0 0, 10 3.5, 0 7" fill="#173F6D"/>
    </marker>
    <marker id="arrowhead-open" markerWidth="12" markerHeight="9" refX="11" refY="4.50" orient="auto">
      <polygon points="0 0, 12 4.50, 0 9" fill="#FFFDF8" stroke="#173F6D" stroke-width="1.50"/>
    </marker>
    <marker id="arrowhead-filled-diamond" markerWidth="14" markerHeight="9" refX="1" refY="4.50" orient="auto">
      <polygon points="1 4.50, 7 1, 13 4.50, 7 8" fill="#173F6D"/>
    </marker>
    <marker id="arrowhead-open-diamond" markerWidth="14" markerHeight="9" refX="1" refY="4.50" orient="auto">
      <polygon points="1 4.50, 7 1, 13 4.50, 7 8" fill="#FFFDF8" stroke="#173F6D" stroke-width="1.50"/>
    </marker>
  </defs>
  <rect width="831.00" height="766.00" fill="#FFFDF8" rx="12.00" ry="12.00"/>
  <path d="M 418.00,301.00 L 418.00,196.00" fill="none" stroke="#173F6D" stroke-width="1.80" stroke-linecap="round"   marker-end="url(#arrowhead)" />
  <path d="M 535.00,418.00 L 575.00,418.00" fill="none" stroke="#173F6D" stroke-width="1.80" stroke-linecap="round"   marker-end="url(#arrowhead)" />
  <path d="M 418.00,535.00 L 418.00,640.00" fill="none" stroke="#173F6D" stroke-width="1.80" stroke-linecap="round"   marker-end="url(#arrowhead)" />
  <path d="M 301.00,418.00 L 261.00,418.00" fill="none" stroke="#173F6D" stroke-width="1.80" stroke-linecap="round"   marker-end="url(#arrowhead)" />
  <g transform="translate(301.00,301.00)">
    <defs>
      <linearGradient id="node-0-fill-gradient" x1="0%" y1="0%" x2="100%" y2="100%">
        <stop offset="0%" stop-color="#E9F1FF"/>
        <stop offset="58%" stop-color="#E7F0FF"/>
        <stop offset="100%" stop-color="#D6DEEC"/>
      </linearGradient>
      <linearGradient id="node-0-stroke-gradient" x1="0%" y1="0%" x2="100%" y2="0%">
        <stop offset="0%" stop-color="#C0C6D3"/>
        <stop offset="33%" stop-color="#D3C6A6"/>
        <stop offset="67%" stop-color="#B9C8D3"/>
        <stop offset="100%" stop-color="#C1CAC1"/>
      </linearGradient>
    </defs>
    <defs>
      <filter id="node-0-soft-shadow" x="-8%" y="-8%" width="124%" height="136%" color-interpolation-filters="sRGB">
        <feGaussianBlur in="SourceAlpha" stdDeviation="1.65" result="shadow-blur"/>
        <feOffset in="shadow-blur" dx="0.00" dy="1.55" result="shadow-offset"/>
        <feFlood flood-color="#0F172A" flood-opacity="0.16" result="shadow-color"/>
        <feComposite in="shadow-color" in2="shadow-offset" operator="in" result="shadow"/>
        <feMerge>
          <feMergeNode in="shadow"/>
          <feMergeNode in="SourceGraphic"/>
        </feMerge>
      </filter>
    </defs>
    <ellipse cx="117.00" cy="117.00" rx="117.00" ry="117.00" fill="url(#node-0-fill-gradient)" stroke="url(#node-0-stroke-gradient)" stroke-width="1.80" filter="url(#node-0-soft-shadow)"/>
    <g transform="translate(77.22,42.12)">
      <svg width="79.56" height="79.56" viewBox="0 0 24 24" overflow="visible" color="#111827">
        <path d="M18.74 10.04A6.87 6.87 0 0 0 12 4C9.34 4 7.05 5.64 5.9 8.04A5.5 5.5 0 0 0 1 14c0 3.31 2.47 6 5.5 6h11.93c2.53 0 4.58-2.24 4.58-5 0-2.64-1.88-4.78-4.27-4.96z" fill="none" stroke="currentColor" stroke-width="1.5" stroke-linejoin="round" />
      </svg>
    </g>
    <text x="117.00" y="169.06" text-anchor="middle" font-family="&quot;Segoe UI&quot;, Inter, Arial, sans-serif" font-size="26.52" fill="#111827">Platform</text>
  </g>
  <g transform="translate(306.00,102.00)">
    <defs>
      <linearGradient id="node-1-fill-gradient" x1="0%" y1="0%" x2="100%" y2="100%">
        <stop offset="0%" stop-color="#FFE8DC"/>
        <stop offset="58%" stop-color="#FFE6D8"/>
        <stop offset="100%" stop-color="#ECD5C8"/>
      </linearGradient>
      <linearGradient id="node-1-stroke-gradient" x1="0%" y1="0%" x2="100%" y2="0%">
        <stop offset="0%" stop-color="#C0C6D3"/>
        <stop offset="33%" stop-color="#D3C6A6"/>
        <stop offset="67%" stop-color="#B9C8D3"/>
        <stop offset="100%" stop-color="#C1CAC1"/>
      </linearGradient>
    </defs>
    <defs>
      <filter id="node-1-soft-shadow" x="-8%" y="-8%" width="124%" height="136%" color-interpolation-filters="sRGB">
        <feGaussianBlur in="SourceAlpha" stdDeviation="1.65" result="shadow-blur"/>
        <feOffset in="shadow-blur" dx="0.00" dy="1.55" result="shadow-offset"/>
        <feFlood flood-color="#0F172A" flood-opacity="0.16" result="shadow-color"/>
        <feComposite in="shadow-color" in2="shadow-offset" operator="in" result="shadow"/>
        <feMerge>
          <feMergeNode in="shadow"/>
          <feMergeNode in="SourceGraphic"/>
        </feMerge>
      </filter>
    </defs>
    <rect width="224.00" height="94.00" rx="12.00" ry="12.00" fill="url(#node-1-fill-gradient)" stroke="url(#node-1-stroke-gradient)" stroke-width="1.80" filter="url(#node-1-soft-shadow)"/>
    <g transform="translate(88.00,16.00)">
      <svg width="48.00" height="48.00" viewBox="0 0 24 24" overflow="visible" color="#111827">
        <g fill="none" stroke="currentColor" stroke-width="1.5"><rect x="2" y="2" width="20" height="8" rx="2" ry="2" /><rect x="2" y="14" width="20" height="8" rx="2" ry="2" /><circle cx="6" cy="6" r="1" fill="currentColor" /><circle cx="6" cy="18" r="1" fill="currentColor" /></g>
      </svg>
    </g>
    <text x="112.00" y="79.60" text-anchor="middle" font-family="&quot;Segoe UI&quot;, Inter, Arial, sans-serif" font-size="16.00" fill="#111827">Security</text>
  </g>
  <g transform="translate(575.00,371.00)">
    <defs>
      <linearGradient id="node-2-fill-gradient" x1="0%" y1="0%" x2="100%" y2="100%">
        <stop offset="0%" stop-color="#FFF1CD"/>
        <stop offset="58%" stop-color="#FFF0C7"/>
        <stop offset="100%" stop-color="#ECDEB8"/>
      </linearGradient>
      <linearGradient id="node-2-stroke-gradient" x1="0%" y1="0%" x2="100%" y2="0%">
        <stop offset="0%" stop-color="#C0C6D3"/>
        <stop offset="33%" stop-color="#D3C6A6"/>
        <stop offset="67%" stop-color="#B9C8D3"/>
        <stop offset="100%" stop-color="#C1CAC1"/>
      </linearGradient>
    </defs>
    <defs>
      <filter id="node-2-soft-shadow" x="-8%" y="-8%" width="124%" height="136%" color-interpolation-filters="sRGB">
        <feGaussianBlur in="SourceAlpha" stdDeviation="1.65" result="shadow-blur"/>
        <feOffset in="shadow-blur" dx="0.00" dy="1.55" result="shadow-offset"/>
        <feFlood flood-color="#0F172A" flood-opacity="0.16" result="shadow-color"/>
        <feComposite in="shadow-color" in2="shadow-offset" operator="in" result="shadow"/>
        <feMerge>
          <feMergeNode in="shadow"/>
          <feMergeNode in="SourceGraphic"/>
        </feMerge>
      </filter>
    </defs>
    <rect width="224.00" height="94.00" rx="12.00" ry="12.00" fill="url(#node-2-fill-gradient)" stroke="url(#node-2-stroke-gradient)" stroke-width="1.80" filter="url(#node-2-soft-shadow)"/>
    <g transform="translate(88.00,16.00)">
      <svg width="48.00" height="48.00" viewBox="0 0 24 24" overflow="visible" color="#111827">
        <g fill="none" stroke="currentColor" stroke-width="1.5"><ellipse cx="12" cy="5.5" rx="8" ry="3.5" /><path d="M4 5.5v13c0 1.93 3.58 3.5 8 3.5s8-1.57 8-3.5v-13" /><path d="M4 12c0 1.93 3.58 3.5 8 3.5s8-1.57 8-3.5" /></g>
      </svg>
    </g>
    <text x="112.00" y="79.60" text-anchor="middle" font-family="&quot;Segoe UI&quot;, Inter, Arial, sans-serif" font-size="16.00" fill="#111827">Reliability</text>
  </g>
  <g transform="translate(306.00,640.00)">
    <defs>
      <linearGradient id="node-3-fill-gradient" x1="0%" y1="0%" x2="100%" y2="100%">
        <stop offset="0%" stop-color="#DFF6EA"/>
        <stop offset="58%" stop-color="#DCF5E8"/>
        <stop offset="100%" stop-color="#CCE3D7"/>
      </linearGradient>
      <linearGradient id="node-3-stroke-gradient" x1="0%" y1="0%" x2="100%" y2="0%">
        <stop offset="0%" stop-color="#C0C6D3"/>
        <stop offset="33%" stop-color="#D3C6A6"/>
        <stop offset="67%" stop-color="#B9C8D3"/>
        <stop offset="100%" stop-color="#C1CAC1"/>
      </linearGradient>
    </defs>
    <defs>
      <filter id="node-3-soft-shadow" x="-8%" y="-8%" width="124%" height="136%" color-interpolation-filters="sRGB">
        <feGaussianBlur in="SourceAlpha" stdDeviation="1.65" result="shadow-blur"/>
        <feOffset in="shadow-blur" dx="0.00" dy="1.55" result="shadow-offset"/>
        <feFlood flood-color="#0F172A" flood-opacity="0.16" result="shadow-color"/>
        <feComposite in="shadow-color" in2="shadow-offset" operator="in" result="shadow"/>
        <feMerge>
          <feMergeNode in="shadow"/>
          <feMergeNode in="SourceGraphic"/>
        </feMerge>
      </filter>
    </defs>
    <rect width="224.00" height="94.00" rx="12.00" ry="12.00" fill="url(#node-3-fill-gradient)" stroke="url(#node-3-stroke-gradient)" stroke-width="1.80" filter="url(#node-3-soft-shadow)"/>
    <text x="112.00" y="52.60" text-anchor="middle" font-family="&quot;Segoe UI&quot;, Inter, Arial, sans-serif" font-size="16.00" fill="#111827">Developer Experience</text>
  </g>
  <g transform="translate(37.00,371.00)">
    <defs>
      <linearGradient id="node-4-fill-gradient" x1="0%" y1="0%" x2="100%" y2="100%">
        <stop offset="0%" stop-color="#F0E6FF"/>
        <stop offset="58%" stop-color="#EFE3FF"/>
        <stop offset="100%" stop-color="#DDD2EC"/>
      </linearGradient>
      <linearGradient id="node-4-stroke-gradient" x1="0%" y1="0%" x2="100%" y2="0%">
        <stop offset="0%" stop-color="#C0C6D3"/>
        <stop offset="33%" stop-color="#D3C6A6"/>
        <stop offset="67%" stop-color="#B9C8D3"/>
        <stop offset="100%" stop-color="#C1CAC1"/>
      </linearGradient>
    </defs>
    <defs>
      <filter id="node-4-soft-shadow" x="-8%" y="-8%" width="124%" height="136%" color-interpolation-filters="sRGB">
        <feGaussianBlur in="SourceAlpha" stdDeviation="1.65" result="shadow-blur"/>
        <feOffset in="shadow-blur" dx="0.00" dy="1.55" result="shadow-offset"/>
        <feFlood flood-color="#0F172A" flood-opacity="0.16" result="shadow-color"/>
        <feComposite in="shadow-color" in2="shadow-offset" operator="in" result="shadow"/>
        <feMerge>
          <feMergeNode in="shadow"/>
          <feMergeNode in="SourceGraphic"/>
        </feMerge>
      </filter>
    </defs>
    <rect width="224.00" height="94.00" rx="12.00" ry="12.00" fill="url(#node-4-fill-gradient)" stroke="url(#node-4-stroke-gradient)" stroke-width="1.80" filter="url(#node-4-soft-shadow)"/>
    <g transform="translate(88.00,16.00)">
      <svg width="48.00" height="48.00" viewBox="0 0 24 24" overflow="visible" color="#111827">
        <path d="M18.74 10.04A6.87 6.87 0 0 0 12 4C9.34 4 7.05 5.64 5.9 8.04A5.5 5.5 0 0 0 1 14c0 3.31 2.47 6 5.5 6h11.93c2.53 0 4.58-2.24 4.58-5 0-2.64-1.88-4.78-4.27-4.96z" fill="none" stroke="currentColor" stroke-width="1.5" stroke-linejoin="round" />
      </svg>
    </g>
    <text x="112.00" y="79.60" text-anchor="middle" font-family="&quot;Segoe UI&quot;, Inter, Arial, sans-serif" font-size="16.00" fill="#111827">Observability</text>
  </g>
</svg>
