<svg xmlns="http://www.w3.org/2000/svg" width="720.00" height="133.00" viewBox="0 0 720.00 133.00">
  <defs>
    <marker id="arrowhead" markerWidth="10" markerHeight="7" refX="9" refY="3.5" orient="auto">
      <polygon points="0 0, 10 3.5, 0 7" fill="#52525B"/>
    </marker>
  </defs>
  <rect width="720.00" height="133.00" fill="#18181B" rx="8.00" ry="8.00"/>
  <defs>
    <linearGradient id="group-0-fill-gradient" x1="0%" y1="0%" x2="100%" y2="100%">
      <stop offset="0%" stop-color="#323235E0"/>
      <stop offset="58%" stop-color="#232326E0"/>
      <stop offset="100%" stop-color="#212124E0"/>
    </linearGradient>
  </defs>
  <rect x="24.00" y="24.00" width="324.00" height="85.00" rx="8.00" ry="8.00" fill="url(#group-0-fill-gradient)" stroke="#4F4F57" stroke-width="1.50"/>
  <rect x="34.00" y="34.00" width="88.36" height="20.66" rx="10.33" ry="10.33" fill="#242428" stroke="#4B4B52" stroke-width="1.20"/>
  <text x="43.00" y="48.05" font-family="&quot;Segoe UI&quot;, Inter, Arial, sans-serif" font-size="10.66" fill="#FAFAFA" font-weight="bold">Design Loop</text>
  <path d="M 156.00,77.00 C 180.00,77.00 192.00,77.00 216.00,77.00" fill="none" stroke="#52525B" stroke-width="1.50"  marker-end="url(#arrowhead)" />
  <path d="M 336.00,77.00 C 360.00,77.00 372.00,77.00 396.00,77.00" fill="none" stroke="#52525B" stroke-width="1.50"  marker-end="url(#arrowhead)" />
  <path d="M 516.00,77.00 C 540.00,77.00 552.00,77.00 576.00,77.00" fill="none" stroke="#52525B" stroke-width="1.50"  marker-end="url(#arrowhead)" />
  <text x="546.00" y="73.00" text-anchor="middle" font-family="&quot;Segoe UI&quot;, Inter, Arial, sans-serif" font-size="11.05" fill="#A1A1AA" font-style="italic">ship</text>
  <path d="M 396.00,77.00 C 300.00,77.00 252.00,77.00 156.00,77.00" fill="none" stroke="#52525B" stroke-width="1.50"  marker-end="url(#arrowhead)" />
  <text x="276.00" y="73.00" text-anchor="middle" font-family="&quot;Segoe UI&quot;, Inter, Arial, sans-serif" font-size="11.05" fill="#A1A1AA" font-style="italic">revise</text>
  <g transform="translate(36.00,57.00)">
    <defs>
      <linearGradient id="node-0-fill-gradient" x1="0%" y1="0%" x2="100%" y2="100%">
        <stop offset="0%" stop-color="#323235"/>
        <stop offset="58%" stop-color="#232326"/>
        <stop offset="100%" stop-color="#212124"/>
      </linearGradient>
    </defs>
    <rect width="120.00" height="40.00" rx="0" ry="0" fill="url(#node-0-fill-gradient)" stroke="#1C1C1F" stroke-width="1.50"/>
    <text x="60.00" y="24.55" text-anchor="middle" font-family="&quot;Segoe UI&quot;, Inter, Arial, sans-serif" font-size="13.00" fill="#FAFAFA">Plan</text>
  </g>
  <g transform="translate(216.00,57.00)">
    <defs>
      <linearGradient id="node-1-fill-gradient" x1="0%" y1="0%" x2="100%" y2="100%">
        <stop offset="0%" stop-color="#39393E"/>
        <stop offset="58%" stop-color="#2A2A30"/>
        <stop offset="100%" stop-color="#27272D"/>
      </linearGradient>
    </defs>
    <rect width="120.00" height="40.00" rx="0" ry="0" fill="url(#node-1-fill-gradient)" stroke="#222227" stroke-width="1.50"/>
    <text x="60.00" y="24.55" text-anchor="middle" font-family="&quot;Segoe UI&quot;, Inter, Arial, sans-serif" font-size="13.00" fill="#FAFAFA">Draft</text>
  </g>
  <g transform="translate(396.00,57.00)">
    <defs>
      <linearGradient id="node-2-fill-gradient" x1="0%" y1="0%" x2="100%" y2="100%">
        <stop offset="0%" stop-color="#3E3E47"/>
        <stop offset="58%" stop-color="#303039"/>
        <stop offset="100%" stop-color="#2D2D36"/>
      </linearGradient>
    </defs>
    <polygon points="60.00,0 120.00,20.00 60.00,40.00 0,20.00" fill="url(#node-2-fill-gradient)" stroke="#27272E" stroke-width="1.50"/>
    <text x="60.00" y="24.55" text-anchor="middle" font-family="&quot;Segoe UI&quot;, Inter, Arial, sans-serif" font-size="13.00" fill="#FAFAFA">Review</text>
  </g>
  <g transform="translate(576.00,57.00)">
    <defs>
      <linearGradient id="node-3-fill-gradient" x1="0%" y1="0%" x2="100%" y2="100%">
        <stop offset="0%" stop-color="#35353B"/>
        <stop offset="58%" stop-color="#26262C"/>
        <stop offset="100%" stop-color="#242429"/>
      </linearGradient>
    </defs>
    <rect width="120.00" height="40.00" rx="0" ry="0" fill="url(#node-3-fill-gradient)" stroke="#1F1F24" stroke-width="1.50"/>
    <text x="60.00" y="24.55" text-anchor="middle" font-family="&quot;Segoe UI&quot;, Inter, Arial, sans-serif" font-size="13.00" fill="#FAFAFA">Publish</text>
  </g>
</svg>
