<svg xmlns="http://www.w3.org/2000/svg" width="720.00" height="133.00" viewBox="0 0 720.00 133.00">
  <defs>
    <marker id="arrowhead" markerWidth="10" markerHeight="7" refX="9" refY="3.5" orient="auto">
      <polygon points="0 0, 10 3.5, 0 7" fill="#7F848E"/>
    </marker>
    <marker id="arrowhead-open" markerWidth="12" markerHeight="9" refX="11" refY="4.50" orient="auto">
      <polygon points="0 0, 12 4.50, 0 9" fill="#282C34" stroke="#7F848E" stroke-width="1.50"/>
    </marker>
    <marker id="arrowhead-filled-diamond" markerWidth="14" markerHeight="9" refX="1" refY="4.50" orient="auto">
      <polygon points="1 4.50, 7 1, 13 4.50, 7 8" fill="#7F848E"/>
    </marker>
    <marker id="arrowhead-open-diamond" markerWidth="14" markerHeight="9" refX="1" refY="4.50" orient="auto">
      <polygon points="1 4.50, 7 1, 13 4.50, 7 8" fill="#282C34" stroke="#7F848E" stroke-width="1.50"/>
    </marker>
  </defs>
  <rect width="720.00" height="133.00" fill="#282C34" rx="8.00" ry="8.00"/>
  <defs>
    <linearGradient id="group-0-fill-gradient" x1="0%" y1="0%" x2="100%" y2="100%">
      <stop offset="0%" stop-color="#3F454EE0"/>
      <stop offset="58%" stop-color="#2D333DE0"/>
      <stop offset="100%" stop-color="#2A2F39E0"/>
    </linearGradient>
    <linearGradient id="group-0-stroke-gradient" x1="0%" y1="0%" x2="100%" y2="0%">
      <stop offset="0%" stop-color="#4E5564"/>
      <stop offset="100%" stop-color="#4B5567"/>
    </linearGradient>
  </defs>
  <rect x="24.00" y="24.00" width="324.00" height="85.00" rx="8.00" ry="8.00" fill="url(#group-0-fill-gradient)" stroke="url(#group-0-stroke-gradient)" stroke-width="1.50"/>
  <rect x="34.00" y="34.00" width="88.36" height="20.66" rx="10.33" ry="10.33" fill="#2F343E" stroke="#464D5C" stroke-width="1.20"/>
  <text x="43.00" y="48.05" font-family="&quot;Segoe UI&quot;, Inter, Arial, sans-serif" font-size="10.66" fill="#ABB2BF" font-weight="bold">Design Loop</text>
  <path d="M 156.00,77.00 C 180.00,77.00 192.00,77.00 216.00,77.00" fill="none" stroke="#7F848E" stroke-width="1.50"   marker-end="url(#arrowhead)" />
  <path d="M 336.00,77.00 C 360.00,77.00 372.00,77.00 396.00,77.00" fill="none" stroke="#7F848E" stroke-width="1.50"   marker-end="url(#arrowhead)" />
  <path d="M 516.00,77.00 C 540.00,77.00 552.00,77.00 576.00,77.00" fill="none" stroke="#7F848E" stroke-width="1.50"   marker-end="url(#arrowhead)" />
  <text x="546.00" y="73.00" text-anchor="middle" font-family="&quot;Segoe UI&quot;, Inter, Arial, sans-serif" font-size="11.05" fill="#8C95A6" font-style="italic">ship</text>
  <path d="M 396.00,77.00 C 300.00,77.00 252.00,77.00 156.00,77.00" fill="none" stroke="#7F848E" stroke-width="1.50"   marker-end="url(#arrowhead)" />
  <text x="276.00" y="73.00" text-anchor="middle" font-family="&quot;Segoe UI&quot;, Inter, Arial, sans-serif" font-size="11.05" fill="#8C95A6" font-style="italic">revise</text>
  <g transform="translate(36.00,57.00)">
    <defs>
      <linearGradient id="node-0-fill-gradient" x1="0%" y1="0%" x2="100%" y2="100%">
        <stop offset="0%" stop-color="#414851"/>
        <stop offset="58%" stop-color="#2F3640"/>
        <stop offset="100%" stop-color="#2C323C"/>
      </linearGradient>
      <linearGradient id="node-0-stroke-gradient" x1="0%" y1="0%" x2="100%" y2="0%">
        <stop offset="0%" stop-color="#2C323A"/>
        <stop offset="100%" stop-color="#29333D"/>
      </linearGradient>
    </defs>
    <rect width="120.00" height="40.00" rx="0" ry="0" fill="url(#node-0-fill-gradient)" stroke="url(#node-0-stroke-gradient)" stroke-width="1.50"/>
    <text x="60.00" y="24.55" text-anchor="middle" font-family="&quot;Segoe UI&quot;, Inter, Arial, sans-serif" font-size="13.00" fill="#ABB2BF">Plan</text>
  </g>
  <g transform="translate(216.00,57.00)">
    <defs>
      <linearGradient id="node-1-fill-gradient" x1="0%" y1="0%" x2="100%" y2="100%">
        <stop offset="0%" stop-color="#455263"/>
        <stop offset="58%" stop-color="#334154"/>
        <stop offset="100%" stop-color="#2F3D4E"/>
      </linearGradient>
      <linearGradient id="node-1-stroke-gradient" x1="0%" y1="0%" x2="100%" y2="0%">
        <stop offset="0%" stop-color="#2F3B49"/>
        <stop offset="100%" stop-color="#2C3B4C"/>
      </linearGradient>
    </defs>
    <rect width="120.00" height="40.00" rx="0" ry="0" fill="url(#node-1-fill-gradient)" stroke="url(#node-1-stroke-gradient)" stroke-width="1.50"/>
    <text x="60.00" y="24.55" text-anchor="middle" font-family="&quot;Segoe UI&quot;, Inter, Arial, sans-serif" font-size="13.00" fill="#ABB2BF">Draft</text>
  </g>
  <g transform="translate(396.00,57.00)">
    <defs>
      <linearGradient id="node-2-fill-gradient" x1="0%" y1="0%" x2="100%" y2="100%">
        <stop offset="0%" stop-color="#415C71"/>
        <stop offset="58%" stop-color="#2F4C63"/>
        <stop offset="100%" stop-color="#2C475D"/>
      </linearGradient>
      <linearGradient id="node-2-stroke-gradient" x1="0%" y1="0%" x2="100%" y2="0%">
        <stop offset="0%" stop-color="#2C4356"/>
        <stop offset="100%" stop-color="#294459"/>
      </linearGradient>
    </defs>
    <polygon points="60.00,0 120.00,20.00 60.00,40.00 0,20.00" fill="url(#node-2-fill-gradient)" stroke="url(#node-2-stroke-gradient)" stroke-width="1.50"/>
    <text x="60.00" y="24.55" text-anchor="middle" font-family="&quot;Segoe UI&quot;, Inter, Arial, sans-serif" font-size="13.00" fill="#ABB2BF">Review</text>
  </g>
  <g transform="translate(576.00,57.00)">
    <defs>
      <linearGradient id="node-3-fill-gradient" x1="0%" y1="0%" x2="100%" y2="100%">
        <stop offset="0%" stop-color="#4D5462"/>
        <stop offset="58%" stop-color="#3C4453"/>
        <stop offset="100%" stop-color="#383F4E"/>
      </linearGradient>
      <linearGradient id="node-3-stroke-gradient" x1="0%" y1="0%" x2="100%" y2="0%">
        <stop offset="0%" stop-color="#373D49"/>
        <stop offset="100%" stop-color="#343D4C"/>
      </linearGradient>
    </defs>
    <rect width="120.00" height="40.00" rx="0" ry="0" fill="url(#node-3-fill-gradient)" stroke="url(#node-3-stroke-gradient)" stroke-width="1.50"/>
    <text x="60.00" y="24.55" text-anchor="middle" font-family="&quot;Segoe UI&quot;, Inter, Arial, sans-serif" font-size="13.00" fill="#ABB2BF">Publish</text>
  </g>
</svg>
