<svg xmlns="http://www.w3.org/2000/svg" width="360.00" height="189.00" viewBox="0 0 360.00 189.00">
  <defs>
    <marker id="arrowhead" markerWidth="10" markerHeight="7" refX="9" refY="3.5" orient="auto">
      <polygon points="0 0, 10 3.5, 0 7" fill="#A0AEC0"/>
    </marker>
  </defs>
  <rect width="360.00" height="189.00" fill="#1E1E1E" rx="8.00" ry="8.00"/>
  <rect x="12.00" y="0.00" width="324.00" height="165.00" rx="8.00" ry="8.00" fill="#F3F4F6" stroke="#D1D5DB" stroke-width="1.50" opacity="0.6"/>
  <text x="20.00" y="17.00" font-family="&quot;Segoe UI&quot;, Inter, Arial, sans-serif" font-size="11.70" fill="#A0AEC0" font-weight="bold">API</text>
  <path d="M 204.00,53.00 C 180.00,53.00 168.00,53.00 144.00,53.00" fill="none" stroke="#A0AEC0" stroke-width="1.50"  />
  <path d="M 84.00,113.00 C 84.00,97.00 84.00,89.00 84.00,73.00" fill="none" stroke="#A0AEC0" stroke-width="1.50"  />
  <path d="M 264.00,113.00 C 264.00,97.00 264.00,89.00 264.00,73.00" fill="none" stroke="#A0AEC0" stroke-width="1.50"  />
  <g transform="translate(204.00,33.00)">
    <rect width="120.00" height="40.00" rx="8.00" ry="8.00" fill="#2B4A7A" stroke="#223B61" stroke-width="1.50"/>
    <text x="60.00" y="24.55" text-anchor="middle" font-family="&quot;Segoe UI&quot;, Inter, Arial, sans-serif" font-size="13.00" fill="#E2E8F0">Database</text>
  </g>
  <g transform="translate(24.00,113.00)">
    <rect width="120.00" height="40.00" rx="8.00" ry="8.00" fill="#1D5C37" stroke="#17492C" stroke-width="1.50"/>
    <text x="60.00" y="24.55" text-anchor="middle" font-family="&quot;Segoe UI&quot;, Inter, Arial, sans-serif" font-size="13.00" fill="#E2E8F0">Storage</text>
  </g>
  <g transform="translate(204.00,113.00)">
    <rect width="120.00" height="40.00" rx="8.00" ry="8.00" fill="#7A3A1A" stroke="#612E14" stroke-width="1.50"/>
    <text x="60.00" y="24.55" text-anchor="middle" font-family="&quot;Segoe UI&quot;, Inter, Arial, sans-serif" font-size="13.00" fill="#E2E8F0">Storage</text>
  </g>
  <g transform="translate(24.00,33.00)">
    <rect width="120.00" height="40.00" rx="0" ry="0" fill="#5A2D82" stroke="#482468" stroke-width="1.50"/>
    <text x="60.00" y="24.55" text-anchor="middle" font-family="&quot;Segoe UI&quot;, Inter, Arial, sans-serif" font-size="13.00" fill="#E2E8F0">Server</text>
  </g>
</svg>
