<svg xmlns="http://www.w3.org/2000/svg" width="708.00" height="88.00" viewBox="0 0 708.00 88.00">
  <defs>
    <marker id="arrowhead" markerWidth="10" markerHeight="7" refX="9" refY="3.5" orient="auto">
      <polygon points="0 0, 10 3.5, 0 7" fill="#555555"/>
    </marker>
  </defs>
  <rect width="708.00" height="88.00" fill="#FFFFFF" rx="8.00" ry="8.00"/>
  <path d="M 144.00,44.00 C 168.00,44.00 180.00,44.00 204.00,44.00" fill="none" stroke="#555555" stroke-width="1.50"  marker-end="url(#arrowhead)" />
  <path d="M 324.00,44.00 C 348.00,44.00 360.00,44.00 384.00,44.00" fill="none" stroke="#555555" stroke-width="1.50"  marker-end="url(#arrowhead)" />
  <path d="M 504.00,44.00 C 528.00,44.00 540.00,44.00 564.00,44.00" fill="none" stroke="#555555" stroke-width="1.50"  marker-end="url(#arrowhead)" />
  <g transform="translate(24.00,24.00)">
    <rect width="120.00" height="40.00" rx="0" ry="0" fill="#DAE8FC" stroke="#4F81BD" stroke-width="1.50"/>
    <text x="60.00" y="24.55" text-anchor="middle" font-family="&quot;Segoe UI&quot;, Inter, Arial, sans-serif" font-size="13.00" fill="#1F2937">Rectangle</text>
  </g>
  <g transform="translate(204.00,24.00)">
    <rect width="120.00" height="40.00" rx="8.00" ry="8.00" fill="#DAE8FC" stroke="#4F81BD" stroke-width="1.50"/>
    <text x="60.00" y="24.55" text-anchor="middle" font-family="&quot;Segoe UI&quot;, Inter, Arial, sans-serif" font-size="13.00" fill="#1F2937">Rounded</text>
  </g>
  <g transform="translate(384.00,24.00)">
    <polygon points="60.00,0 120.00,20.00 60.00,40.00 0,20.00" fill="#DAE8FC" stroke="#4F81BD" stroke-width="1.50"/>
    <text x="60.00" y="24.55" text-anchor="middle" font-family="&quot;Segoe UI&quot;, Inter, Arial, sans-serif" font-size="13.00" fill="#1F2937">Decision</text>
  </g>
  <g transform="translate(564.00,24.00)">
    <ellipse cx="60.00" cy="20.00" rx="60.00" ry="20.00" fill="#DAE8FC" stroke="#4F81BD" stroke-width="1.50"/>
    <text x="60.00" y="24.55" text-anchor="middle" font-family="&quot;Segoe UI&quot;, Inter, Arial, sans-serif" font-size="13.00" fill="#1F2937">Circle</text>
  </g>
</svg>
