<svg xmlns="http://www.w3.org/2000/svg" width="708.00" height="88.00" viewBox="0 0 708.00 88.00">
  <defs>
    <marker id="arrowhead" markerWidth="10" markerHeight="7" refX="9" refY="3.5" orient="auto">
      <polygon points="0 0, 10 3.5, 0 7" fill="#516074"/>
    </marker>
    <marker id="arrowhead-open" markerWidth="12" markerHeight="9" refX="11" refY="4.50" orient="auto">
      <polygon points="0 0, 12 4.50, 0 9" fill="#FCFCFD" stroke="#516074" stroke-width="1.50"/>
    </marker>
    <marker id="arrowhead-filled-diamond" markerWidth="14" markerHeight="9" refX="1" refY="4.50" orient="auto">
      <polygon points="1 4.50, 7 1, 13 4.50, 7 8" fill="#516074"/>
    </marker>
    <marker id="arrowhead-open-diamond" markerWidth="14" markerHeight="9" refX="1" refY="4.50" orient="auto">
      <polygon points="1 4.50, 7 1, 13 4.50, 7 8" fill="#FCFCFD" stroke="#516074" stroke-width="1.50"/>
    </marker>
  </defs>
  <rect width="708.00" height="88.00" fill="#FCFCFD" rx="8.00" ry="8.00"/>
  <path d="M 144.00,44.00 C 168.00,44.00 180.00,44.00 204.00,44.00" fill="none" stroke="#516074" stroke-width="1.50"   marker-end="url(#arrowhead)" />
  <path d="M 324.00,44.00 C 348.00,44.00 360.00,44.00 384.00,44.00" fill="none" stroke="#516074" stroke-width="1.50"   marker-end="url(#arrowhead)" />
  <path d="M 504.00,44.00 C 528.00,44.00 540.00,44.00 564.00,44.00" fill="none" stroke="#516074" stroke-width="1.50"   marker-end="url(#arrowhead)" />
  <g transform="translate(24.00,24.00)">
    <defs>
      <linearGradient id="node-0-fill-gradient" x1="0%" y1="0%" x2="100%" y2="100%">
        <stop offset="0%" stop-color="#FF7878"/>
        <stop offset="58%" stop-color="#FF6B6B"/>
        <stop offset="100%" stop-color="#EF6464"/>
      </linearGradient>
      <linearGradient id="node-0-stroke-gradient" x1="0%" y1="0%" x2="100%" y2="0%">
        <stop offset="0%" stop-color="#B3B9C2"/>
        <stop offset="100%" stop-color="#AAB2C2"/>
      </linearGradient>
    </defs>
    <rect width="120.00" height="40.00" rx="0" ry="0" fill="url(#node-0-fill-gradient)" stroke="url(#node-0-stroke-gradient)" stroke-width="1.50"/>
    <text x="60.00" y="24.55" text-anchor="middle" font-family="&quot;Segoe UI&quot;, Inter, Arial, sans-serif" font-size="13.00" fill="#0F172A">Rectangle</text>
  </g>
  <g transform="translate(204.00,24.00)">
    <defs>
      <linearGradient id="node-1-fill-gradient" x1="0%" y1="0%" x2="100%" y2="100%">
        <stop offset="0%" stop-color="#5DD1C9"/>
        <stop offset="58%" stop-color="#4ECDC4"/>
        <stop offset="100%" stop-color="#49C0B8"/>
      </linearGradient>
      <linearGradient id="node-1-stroke-gradient" x1="0%" y1="0%" x2="100%" y2="0%">
        <stop offset="0%" stop-color="#B2BDB8"/>
        <stop offset="100%" stop-color="#A9B6B8"/>
      </linearGradient>
    </defs>
    <rect width="120.00" height="40.00" rx="8.00" ry="8.00" fill="url(#node-1-fill-gradient)" stroke="url(#node-1-stroke-gradient)" stroke-width="1.50"/>
    <text x="60.00" y="24.55" text-anchor="middle" font-family="&quot;Segoe UI&quot;, Inter, Arial, sans-serif" font-size="13.00" fill="#0F172A">Rounded</text>
  </g>
  <g transform="translate(384.00,24.00)">
    <defs>
      <linearGradient id="node-2-fill-gradient" x1="0%" y1="0%" x2="100%" y2="100%">
        <stop offset="0%" stop-color="#55BDD5"/>
        <stop offset="58%" stop-color="#45B7D1"/>
        <stop offset="100%" stop-color="#40ACC4"/>
      </linearGradient>
      <linearGradient id="node-2-stroke-gradient" x1="0%" y1="0%" x2="100%" y2="0%">
        <stop offset="0%" stop-color="#C2B9B1"/>
        <stop offset="100%" stop-color="#B9B2B1"/>
      </linearGradient>
    </defs>
    <polygon points="60.00,0 120.00,20.00 60.00,40.00 0,20.00" fill="url(#node-2-fill-gradient)" stroke="url(#node-2-stroke-gradient)" stroke-width="1.50"/>
    <text x="60.00" y="24.55" text-anchor="middle" font-family="&quot;Segoe UI&quot;, Inter, Arial, sans-serif" font-size="13.00" fill="#0F172A">Decision</text>
  </g>
  <g transform="translate(564.00,24.00)">
    <defs>
      <linearGradient id="node-3-fill-gradient" x1="0%" y1="0%" x2="100%" y2="100%">
        <stop offset="0%" stop-color="#9FD2BA"/>
        <stop offset="58%" stop-color="#96CEB4"/>
        <stop offset="100%" stop-color="#8DC1A9"/>
      </linearGradient>
      <linearGradient id="node-3-stroke-gradient" x1="0%" y1="0%" x2="100%" y2="0%">
        <stop offset="0%" stop-color="#BCB3C2"/>
        <stop offset="100%" stop-color="#B2ADC2"/>
      </linearGradient>
    </defs>
    <ellipse cx="60.00" cy="20.00" rx="60.00" ry="20.00" fill="url(#node-3-fill-gradient)" stroke="url(#node-3-stroke-gradient)" stroke-width="1.50"/>
    <text x="60.00" y="24.55" text-anchor="middle" font-family="&quot;Segoe UI&quot;, Inter, Arial, sans-serif" font-size="13.00" fill="#0F172A">Circle</text>
  </g>
</svg>
