<svg xmlns="http://www.w3.org/2000/svg" width="720.00" height="133.00" viewBox="0 0 720.00 133.00">
  <defs>
    <marker id="arrowhead" markerWidth="10" markerHeight="7" refX="9" refY="3.5" orient="auto">
      <polygon points="0 0, 10 3.5, 0 7" fill="#8FA3B8"/>
    </marker>
    <marker id="arrowhead-open" markerWidth="12" markerHeight="9" refX="11" refY="4.50" orient="auto">
      <polygon points="0 0, 12 4.50, 0 9" fill="#0F172A" stroke="#8FA3B8" stroke-width="1.50"/>
    </marker>
    <marker id="arrowhead-filled-diamond" markerWidth="14" markerHeight="9" refX="1" refY="4.50" orient="auto">
      <polygon points="1 4.50, 7 1, 13 4.50, 7 8" fill="#8FA3B8"/>
    </marker>
    <marker id="arrowhead-open-diamond" markerWidth="14" markerHeight="9" refX="1" refY="4.50" orient="auto">
      <polygon points="1 4.50, 7 1, 13 4.50, 7 8" fill="#0F172A" stroke="#8FA3B8" stroke-width="1.50"/>
    </marker>
  </defs>
  <rect width="720.00" height="133.00" fill="#0F172A" rx="10.00" ry="10.00"/>
  <defs>
    <linearGradient id="group-0-fill-gradient" x1="0%" y1="0%" x2="100%" y2="100%">
      <stop offset="0%" stop-color="#3A4354E0"/>
      <stop offset="58%" stop-color="#1A2438E0"/>
      <stop offset="100%" stop-color="#172032E0"/>
    </linearGradient>
  </defs>
  <rect x="24.00" y="24.00" width="324.00" height="85.00" rx="10.00" ry="10.00" fill="url(#group-0-fill-gradient)" stroke="#3A475C" stroke-width="1.50"/>
  <rect x="34.00" y="34.00" width="88.36" height="20.66" rx="10.33" ry="10.33" fill="#182235" stroke="#374358" stroke-width="1.20"/>
  <text x="43.00" y="48.05" font-family="&quot;Segoe UI&quot;, Inter, Arial, sans-serif" font-size="10.66" fill="#E2E8F0" font-weight="bold">Design Loop</text>
  <path d="M 156.00,77.00 C 180.00,77.00 192.00,77.00 216.00,77.00" fill="none" stroke="#8FA3B8" stroke-width="1.50"   marker-end="url(#arrowhead)" />
  <path d="M 336.00,77.00 C 360.00,77.00 372.00,77.00 396.00,77.00" fill="none" stroke="#8FA3B8" stroke-width="1.50"   marker-end="url(#arrowhead)" />
  <path d="M 516.00,77.00 C 540.00,77.00 552.00,77.00 576.00,77.00" fill="none" stroke="#8FA3B8" stroke-width="1.50"   marker-end="url(#arrowhead)" />
  <text x="546.00" y="73.00" text-anchor="middle" font-family="&quot;Segoe UI&quot;, Inter, Arial, sans-serif" font-size="11.05" fill="#94A3B8" font-style="italic">ship</text>
  <path d="M 396.00,77.00 C 300.00,77.00 252.00,77.00 156.00,77.00" fill="none" stroke="#8FA3B8" stroke-width="1.50"   marker-end="url(#arrowhead)" />
  <text x="276.00" y="73.00" text-anchor="middle" font-family="&quot;Segoe UI&quot;, Inter, Arial, sans-serif" font-size="11.05" fill="#94A3B8" font-style="italic">revise</text>
  <g transform="translate(36.00,57.00)">
    <defs>
      <linearGradient id="node-0-fill-gradient" x1="0%" y1="0%" x2="100%" y2="100%">
        <stop offset="0%" stop-color="#404E66"/>
        <stop offset="58%" stop-color="#21314D"/>
        <stop offset="100%" stop-color="#1D2C45"/>
      </linearGradient>
    </defs>
    <rect width="120.00" height="40.00" rx="0" ry="0" fill="url(#node-0-fill-gradient)" stroke="#1B283F" stroke-width="1.50"/>
    <text x="60.00" y="24.55" text-anchor="middle" font-family="&quot;Segoe UI&quot;, Inter, Arial, sans-serif" font-size="13.00" fill="#E2E8F0">Plan</text>
  </g>
  <g transform="translate(216.00,57.00)">
    <defs>
      <linearGradient id="node-1-fill-gradient" x1="0%" y1="0%" x2="100%" y2="100%">
        <stop offset="0%" stop-color="#3C5661"/>
        <stop offset="58%" stop-color="#1C3A47"/>
        <stop offset="100%" stop-color="#193440"/>
      </linearGradient>
    </defs>
    <rect width="120.00" height="40.00" rx="0" ry="0" fill="url(#node-1-fill-gradient)" stroke="#162F3A" stroke-width="1.50"/>
    <text x="60.00" y="24.55" text-anchor="middle" font-family="&quot;Segoe UI&quot;, Inter, Arial, sans-serif" font-size="13.00" fill="#E2E8F0">Draft</text>
  </g>
  <g transform="translate(396.00,57.00)">
    <defs>
      <linearGradient id="node-2-fill-gradient" x1="0%" y1="0%" x2="100%" y2="100%">
        <stop offset="0%" stop-color="#564C71"/>
        <stop offset="58%" stop-color="#3A2F5A"/>
        <stop offset="100%" stop-color="#342A51"/>
      </linearGradient>
    </defs>
    <polygon points="60.00,0 120.00,20.00 60.00,40.00 0,20.00" fill="url(#node-2-fill-gradient)" stroke="#2F2649" stroke-width="1.50"/>
    <text x="60.00" y="24.55" text-anchor="middle" font-family="&quot;Segoe UI&quot;, Inter, Arial, sans-serif" font-size="13.00" fill="#E2E8F0">Review</text>
  </g>
  <g transform="translate(576.00,57.00)">
    <defs>
      <linearGradient id="node-3-fill-gradient" x1="0%" y1="0%" x2="100%" y2="100%">
        <stop offset="0%" stop-color="#495E71"/>
        <stop offset="58%" stop-color="#2B435A"/>
        <stop offset="100%" stop-color="#263C51"/>
      </linearGradient>
    </defs>
    <rect width="120.00" height="40.00" rx="0" ry="0" fill="url(#node-3-fill-gradient)" stroke="#233649" stroke-width="1.50"/>
    <text x="60.00" y="24.55" text-anchor="middle" font-family="&quot;Segoe UI&quot;, Inter, Arial, sans-serif" font-size="13.00" fill="#E2E8F0">Publish</text>
  </g>
</svg>
