<svg xmlns="http://www.w3.org/2000/svg" width="540.00" height="109.00" viewBox="0 0 540.00 109.00">
  <defs>
    <marker id="arrowhead" markerWidth="10" markerHeight="7" refX="9" refY="3.5" orient="auto">
      <polygon points="0 0, 10 3.5, 0 7" fill="#34713F"/>
    </marker>
  </defs>
  <rect width="540.00" height="109.00" fill="#F9FFF9" rx="8.00" ry="8.00"/>
  <rect x="12.00" y="0.00" width="324.00" height="85.00" rx="8.00" ry="8.00" fill="#F3F4F6" stroke="#D1D5DB" stroke-width="1.50" opacity="0.6"/>
  <text x="20.00" y="17.00" font-family="&quot;Segoe UI&quot;, Inter, Arial, sans-serif" font-size="11.70" fill="#52A563" font-weight="bold">Backend Services</text>
  <rect x="372.00" y="0.00" width="144.00" height="85.00" rx="8.00" ry="8.00" fill="#F3F4F6" stroke="#D1D5DB" stroke-width="1.50" opacity="0.6"/>
  <text x="380.00" y="17.00" font-family="&quot;Segoe UI&quot;, Inter, Arial, sans-serif" font-size="11.70" fill="#52A563" font-weight="bold">data</text>
  <path d="M 144.00,53.00 C 168.00,53.00 180.00,53.00 204.00,53.00" fill="none" stroke="#34713F" stroke-width="1.50"  marker-end="url(#arrowhead)" />
  <path d="M 324.00,53.00 C 348.00,53.00 360.00,53.00 384.00,53.00" fill="none" stroke="#34713F" stroke-width="1.50"  marker-end="url(#arrowhead)" />
  <g transform="translate(24.00,33.00)">
    <rect width="120.00" height="40.00" rx="0" ry="0" fill="#C8E6C9" stroke="#A0B8A0" stroke-width="1.50"/>
    <text x="60.00" y="24.55" text-anchor="middle" font-family="&quot;Segoe UI&quot;, Inter, Arial, sans-serif" font-size="13.00" fill="#1B3A20">API</text>
  </g>
  <g transform="translate(204.00,33.00)">
    <rect width="120.00" height="40.00" rx="0" ry="0" fill="#A5D6A7" stroke="#84AB85" stroke-width="1.50"/>
    <text x="60.00" y="24.55" text-anchor="middle" font-family="&quot;Segoe UI&quot;, Inter, Arial, sans-serif" font-size="13.00" fill="#1B3A20">Worker</text>
  </g>
  <g transform="translate(384.00,33.00)">
    <rect width="120.00" height="40.00" rx="0" ry="0" fill="#81C784" stroke="#679F69" stroke-width="1.50"/>
    <text x="60.00" y="24.55" text-anchor="middle" font-family="&quot;Segoe UI&quot;, Inter, Arial, sans-serif" font-size="13.00" fill="#1B3A20">DB</text>
  </g>
</svg>
