<svg xmlns="http://www.w3.org/2000/svg" width="544.00" height="320.00" viewBox="0 0 544.00 320.00">
  <defs>
    <marker id="arrowhead" markerWidth="10" markerHeight="7" refX="9" refY="3.5" orient="auto">
      <polygon points="0 0, 10 3.5, 0 7" fill="#003087"/>
    </marker>
  </defs>
  <rect width="544.00" height="320.00" fill="#FFFFFF" rx="10.00" ry="10.00"/>
  <text x="272.00" y="28.00" text-anchor="middle" font-family="&quot;Segoe UI&quot;, Inter, Arial, sans-serif" font-size="20.00" font-weight="bold" fill="#000000">Product Roadmap</text>
  <path d="M 92.00,100.00 C 92.00,116.00 92.00,124.00 92.00,140.00" fill="none" stroke="#003087" stroke-width="1.50"  marker-end="url(#arrowhead)" />
  <path d="M 92.00,100.00 C 92.00,148.00 92.00,172.00 92.00,220.00" fill="none" stroke="#003087" stroke-width="1.50"  marker-end="url(#arrowhead)" />
  <path d="M 272.00,100.00 C 272.00,116.00 272.00,124.00 272.00,140.00" fill="none" stroke="#003087" stroke-width="1.50"  marker-end="url(#arrowhead)" />
  <path d="M 452.00,100.00 C 452.00,116.00 452.00,124.00 452.00,140.00" fill="none" stroke="#003087" stroke-width="1.50"  marker-end="url(#arrowhead)" />
  <path d="M 452.00,100.00 C 452.00,148.00 452.00,172.00 452.00,220.00" fill="none" stroke="#003087" stroke-width="1.50"  marker-end="url(#arrowhead)" />
  <g transform="translate(32.00,60.00)">
    <rect width="120.00" height="40.00" rx="0" ry="0" fill="#D0E4FF" stroke="#A6B6CC" stroke-width="1.50"/>
    <text x="60.00" y="25.60" text-anchor="middle" font-family="&quot;Segoe UI&quot;, Inter, Arial, sans-serif" font-size="16.00" fill="#000000">Q1</text>
  </g>
  <g transform="translate(32.00,140.00)">
    <rect width="120.00" height="40.00" rx="0" ry="0" fill="#FFD6D6" stroke="#CCABAB" stroke-width="1.50"/>
    <text x="60.00" y="25.60" text-anchor="middle" font-family="&quot;Segoe UI&quot;, Inter, Arial, sans-serif" font-size="16.00" fill="#000000">Research</text>
  </g>
  <g transform="translate(32.00,220.00)">
    <rect width="120.00" height="40.00" rx="0" ry="0" fill="#FFF3CD" stroke="#CCC2A4" stroke-width="1.50"/>
    <text x="60.00" y="25.60" text-anchor="middle" font-family="&quot;Segoe UI&quot;, Inter, Arial, sans-serif" font-size="16.00" fill="#000000">Prototype</text>
  </g>
  <g transform="translate(212.00,60.00)">
    <rect width="120.00" height="40.00" rx="0" ry="0" fill="#D4EDDA" stroke="#A9BDAE" stroke-width="1.50"/>
    <text x="60.00" y="25.60" text-anchor="middle" font-family="&quot;Segoe UI&quot;, Inter, Arial, sans-serif" font-size="16.00" fill="#000000">Q2</text>
  </g>
  <g transform="translate(212.00,140.00)">
    <rect width="120.00" height="40.00" rx="0" ry="0" fill="#E2D9F3" stroke="#B4ADC2" stroke-width="1.50"/>
    <text x="60.00" y="25.60" text-anchor="middle" font-family="&quot;Segoe UI&quot;, Inter, Arial, sans-serif" font-size="16.00" fill="#000000">Beta</text>
  </g>
  <g transform="translate(392.00,60.00)">
    <rect width="120.00" height="40.00" rx="0" ry="0" fill="#D1ECF1" stroke="#A7BCC0" stroke-width="1.50"/>
    <text x="60.00" y="25.60" text-anchor="middle" font-family="&quot;Segoe UI&quot;, Inter, Arial, sans-serif" font-size="16.00" fill="#000000">Q3</text>
  </g>
  <g transform="translate(392.00,140.00)">
    <rect width="120.00" height="40.00" rx="0" ry="0" fill="#FDECEA" stroke="#CABCBB" stroke-width="1.50"/>
    <text x="60.00" y="25.60" text-anchor="middle" font-family="&quot;Segoe UI&quot;, Inter, Arial, sans-serif" font-size="16.00" fill="#000000">GA</text>
  </g>
  <g transform="translate(392.00,220.00)">
    <rect width="120.00" height="40.00" rx="0" ry="0" fill="#E8F5E9" stroke="#B9C4BA" stroke-width="1.50"/>
    <text x="60.00" y="25.60" text-anchor="middle" font-family="&quot;Segoe UI&quot;, Inter, Arial, sans-serif" font-size="16.00" fill="#000000">Scale</text>
  </g>
</svg>
