<svg xmlns="http://www.w3.org/2000/svg" width="528.00" height="142.00" viewBox="0 0 528.00 142.00">
  <defs>
    <marker id="arrowhead" markerWidth="10" markerHeight="7" refX="9" refY="3.5" orient="auto">
      <polygon points="0 0, 10 3.5, 0 7" fill="#8B949E"/>
    </marker>
    <marker id="arrowhead-open" markerWidth="12" markerHeight="9" refX="11" refY="4.50" orient="auto">
      <polygon points="0 0, 12 4.50, 0 9" fill="#0D1117" stroke="#8B949E" stroke-width="1.50"/>
    </marker>
    <marker id="arrowhead-filled-diamond" markerWidth="14" markerHeight="9" refX="1" refY="4.50" orient="auto">
      <polygon points="1 4.50, 7 1, 13 4.50, 7 8" fill="#8B949E"/>
    </marker>
    <marker id="arrowhead-open-diamond" markerWidth="14" markerHeight="9" refX="1" refY="4.50" orient="auto">
      <polygon points="1 4.50, 7 1, 13 4.50, 7 8" fill="#0D1117" stroke="#8B949E" stroke-width="1.50"/>
    </marker>
  </defs>
  <rect width="528.00" height="142.00" fill="#0D1117" rx="8.00" ry="8.00"/>
  <path d="M 144.00,71.00 C 168.00,71.00 180.00,71.00 204.00,71.00" fill="none" stroke="#8B949E" stroke-width="1.50"   marker-end="url(#arrowhead)" />
  <path d="M 324.00,71.00 C 350.32,71.00 360.00,54.80 384.00,44.00" fill="none" stroke="#8B949E" stroke-width="1.50"   marker-end="url(#arrowhead)" />
  <g transform="translate(24.00,24.00)">
    <defs>
      <linearGradient id="node-0-fill-gradient" x1="0%" y1="0%" x2="100%" y2="100%">
        <stop offset="0%" stop-color="#2D3647"/>
        <stop offset="58%" stop-color="#172033"/>
        <stop offset="100%" stop-color="#151D2F"/>
      </linearGradient>
      <linearGradient id="node-0-stroke-gradient" x1="0%" y1="0%" x2="100%" y2="0%">
        <stop offset="0%" stop-color="#2A3241"/>
        <stop offset="33%" stop-color="#30394E"/>
        <stop offset="67%" stop-color="#3A3D44"/>
        <stop offset="100%" stop-color="#303A3E"/>
      </linearGradient>
    </defs>
    <rect width="120.00" height="94.00" rx="0" ry="0" fill="url(#node-0-fill-gradient)" stroke="url(#node-0-stroke-gradient)" stroke-width="1.50"/>
    <g transform="translate(36.00,12.00)">
      <svg width="48.00" height="48.00" viewBox="0 0 24 24" overflow="visible" color="#E6EDF3">
        <path d="M18.74 10.04A6.87 6.87 0 0 0 12 4C9.34 4 7.05 5.64 5.9 8.04A5.5 5.5 0 0 0 1 14c0 3.31 2.47 6 5.5 6h11.93c2.53 0 4.58-2.24 4.58-5 0-2.64-1.88-4.78-4.27-4.96z" fill="none" stroke="currentColor" stroke-width="1.5" stroke-linejoin="round" />
      </svg>
    </g>
    <text x="60.00" y="78.55" text-anchor="middle" font-family="&quot;Segoe UI&quot;, Inter, Arial, sans-serif" font-size="13.00" fill="#E6EDF3">Gateway</text>
  </g>
  <g transform="translate(204.00,24.00)">
    <defs>
      <linearGradient id="node-1-fill-gradient" x1="0%" y1="0%" x2="100%" y2="100%">
        <stop offset="0%" stop-color="#2C363F"/>
        <stop offset="58%" stop-color="#15212B"/>
        <stop offset="100%" stop-color="#131E28"/>
      </linearGradient>
      <linearGradient id="node-1-stroke-gradient" x1="0%" y1="0%" x2="100%" y2="0%">
        <stop offset="0%" stop-color="#2A3241"/>
        <stop offset="33%" stop-color="#30394E"/>
        <stop offset="67%" stop-color="#3A3D44"/>
        <stop offset="100%" stop-color="#303A3E"/>
      </linearGradient>
    </defs>
    <rect width="120.00" height="94.00" rx="0" ry="0" fill="url(#node-1-fill-gradient)" stroke="url(#node-1-stroke-gradient)" stroke-width="1.50"/>
    <g transform="translate(36.00,12.00)">
      <svg width="48.00" height="48.00" viewBox="0 0 24 24" overflow="visible" color="#E6EDF3">
        <g fill="none" stroke="currentColor" stroke-width="1.5"><ellipse cx="12" cy="5.5" rx="8" ry="3.5" /><path d="M4 5.5v13c0 1.93 3.58 3.5 8 3.5s8-1.57 8-3.5v-13" /><path d="M4 12c0 1.93 3.58 3.5 8 3.5s8-1.57 8-3.5" /></g>
      </svg>
    </g>
    <text x="60.00" y="78.55" text-anchor="middle" font-family="&quot;Segoe UI&quot;, Inter, Arial, sans-serif" font-size="13.00" fill="#E6EDF3">Data Store</text>
  </g>
  <g transform="translate(384.00,24.00)">
    <defs>
      <linearGradient id="node-2-fill-gradient" x1="0%" y1="0%" x2="100%" y2="100%">
        <stop offset="0%" stop-color="#353F56"/>
        <stop offset="58%" stop-color="#1F2A44"/>
        <stop offset="100%" stop-color="#1C273F"/>
      </linearGradient>
      <linearGradient id="node-2-stroke-gradient" x1="0%" y1="0%" x2="100%" y2="0%">
        <stop offset="0%" stop-color="#2A3241"/>
        <stop offset="33%" stop-color="#30394E"/>
        <stop offset="67%" stop-color="#3A3D44"/>
        <stop offset="100%" stop-color="#303A3E"/>
      </linearGradient>
    </defs>
    <rect width="120.00" height="40.00" rx="0" ry="0" fill="url(#node-2-fill-gradient)" stroke="url(#node-2-stroke-gradient)" stroke-width="1.50"/>
    <text x="60.00" y="24.55" text-anchor="middle" font-family="&quot;Segoe UI&quot;, Inter, Arial, sans-serif" font-size="13.00" fill="#E6EDF3">API</text>
  </g>
</svg>
