<svg xmlns="http://www.w3.org/2000/svg" width="508.00" height="264.00" viewBox="0 0 508.00 264.00">
  <defs>
    <marker id="arrowhead" markerWidth="10" markerHeight="7" refX="9" refY="3.5" orient="auto">
      <polygon points="0 0, 10 3.5, 0 7" fill="#4B5563"/>
    </marker>
  </defs>
  <rect width="508.00" height="264.00" fill="#FFFFFF" rx="8.00" ry="8.00"/>
  <path d="M 144.00,48.00 C 232.00,48.00 276.00,48.00 364.00,48.00" fill="none" stroke="#4B5563" stroke-width="1.50"  marker-end="url(#arrowhead)" />
  <path d="M 254.00,200.00 C 254.00,113.91 356.00,120.80 424.00,68.00" fill="none" stroke="#4B5563" stroke-width="1.50"  marker-end="url(#arrowhead)" />
  <text x="339.00" y="130.00" text-anchor="middle" font-family="&quot;Segoe UI&quot;, Inter, Arial, sans-serif" font-size="11.05" fill="#6B7280" font-style="italic">events</text>
  <g transform="translate(24.00,28.00)">
    <defs>
      <linearGradient id="node-0-fill-gradient" x1="0%" y1="0%" x2="100%" y2="100%">
        <stop offset="0%" stop-color="#F5F5F5"/>
        <stop offset="58%" stop-color="#F5F5F5"/>
        <stop offset="100%" stop-color="#E8E8E8"/>
      </linearGradient>
    </defs>
    <rect width="120.00" height="40.00" rx="0" ry="0" fill="url(#node-0-fill-gradient)" stroke="#BABABA" stroke-width="1.50"/>
    <text x="60.00" y="24.55" text-anchor="middle" font-family="&quot;Segoe UI&quot;, Inter, Arial, sans-serif" font-size="13.00" fill="#111111">Frontend</text>
  </g>
  <g transform="translate(194.00,24.00)">
    <defs>
      <linearGradient id="node-1-fill-gradient" x1="0%" y1="0%" x2="100%" y2="100%">
        <stop offset="0%" stop-color="#EDEDED"/>
        <stop offset="58%" stop-color="#ECECEC"/>
        <stop offset="100%" stop-color="#E0E0E0"/>
      </linearGradient>
    </defs>
    <polygon points="0,9.60 100.80,9.60 100.80,0 120.00,24.00 100.80,48.00 100.80,38.40 0,38.40" fill="url(#node-1-fill-gradient)" stroke="#B3B3B3" stroke-width="1.50"/>
    <text x="60.00" y="28.55" text-anchor="middle" font-family="&quot;Segoe UI&quot;, Inter, Arial, sans-serif" font-size="13.00" fill="#111111">HTTP</text>
  </g>
  <g transform="translate(364.00,28.00)">
    <defs>
      <linearGradient id="node-2-fill-gradient" x1="0%" y1="0%" x2="100%" y2="100%">
        <stop offset="0%" stop-color="#E5E5E5"/>
        <stop offset="58%" stop-color="#E3E3E3"/>
        <stop offset="100%" stop-color="#D7D7D7"/>
      </linearGradient>
    </defs>
    <rect width="120.00" height="40.00" rx="0" ry="0" fill="url(#node-2-fill-gradient)" stroke="#ACACAC" stroke-width="1.50"/>
    <text x="60.00" y="24.55" text-anchor="middle" font-family="&quot;Segoe UI&quot;, Inter, Arial, sans-serif" font-size="13.00" fill="#111111">Backend</text>
  </g>
  <g transform="translate(194.00,112.00)">
    <defs>
      <linearGradient id="node-3-fill-gradient" x1="0%" y1="0%" x2="100%" y2="100%">
        <stop offset="0%" stop-color="#DADADA"/>
        <stop offset="58%" stop-color="#D8D8D8"/>
        <stop offset="100%" stop-color="#CDCDCD"/>
      </linearGradient>
    </defs>
    <polygon points="24.00,0 24.00,28.80 0,28.80 60.00,48.00 120.00,28.80 96.00,28.80 96.00,0" fill="url(#node-3-fill-gradient)" stroke="#A4A4A4" stroke-width="1.50"/>
    <text x="60.00" y="28.55" text-anchor="middle" font-family="&quot;Segoe UI&quot;, Inter, Arial, sans-serif" font-size="13.00" fill="#111111">async</text>
  </g>
  <g transform="translate(24.00,200.00)">
    <defs>
      <linearGradient id="node-4-fill-gradient" x1="0%" y1="0%" x2="100%" y2="100%">
        <stop offset="0%" stop-color="#D0D0D0"/>
        <stop offset="58%" stop-color="#CDCDCD"/>
        <stop offset="100%" stop-color="#C2C2C2"/>
      </linearGradient>
    </defs>
    <rect width="460.00" height="40.00" rx="0" ry="0" fill="url(#node-4-fill-gradient)" stroke="#9B9B9B" stroke-width="1.50"/>
    <text x="230.00" y="24.55" text-anchor="middle" font-family="&quot;Segoe UI&quot;, Inter, Arial, sans-serif" font-size="13.00" fill="#111111">Storage</text>
  </g>
</svg>
