<svg xmlns="http://www.w3.org/2000/svg" width="888.00" height="88.00" viewBox="0 0 888.00 88.00">
  <defs>
    <marker id="arrowhead" markerWidth="10" markerHeight="7" refX="9" refY="3.5" orient="auto">
      <polygon points="0 0, 10 3.5, 0 7" fill="#A0AEC0"/>
    </marker>
  </defs>
  <rect width="888.00" height="88.00" fill="#1E1E1E" rx="8.00" ry="8.00"/>
  <path d="M 144.00,44.00 C 168.00,44.00 180.00,44.00 204.00,44.00" fill="none" stroke="#A0AEC0" stroke-width="1.50"  marker-end="url(#arrowhead)" />
  <path d="M 324.00,44.00 C 348.00,44.00 360.00,44.00 384.00,44.00" fill="none" stroke="#A0AEC0" stroke-width="1.50" stroke-dasharray="2,3"  marker-end="url(#arrowhead)" />
  <path d="M 504.00,44.00 C 528.00,44.00 540.00,44.00 564.00,44.00" fill="none" stroke="#A0AEC0" stroke-width="1.50"  />
  <path d="M 684.00,44.00 C 708.00,44.00 720.00,44.00 744.00,44.00" fill="none" stroke="#A0AEC0" stroke-width="3.00"  marker-end="url(#arrowhead)" />
  <g transform="translate(24.00,24.00)">
    <rect width="120.00" height="40.00" rx="8.00" ry="8.00" fill="#2B4A7A" stroke="#223B61" stroke-width="1.50"/>
    <text x="60.00" y="24.55" text-anchor="middle" font-family="&quot;Segoe UI&quot;, Inter, Arial, sans-serif" font-size="13.00" fill="#E2E8F0">A</text>
  </g>
  <g transform="translate(204.00,24.00)">
    <rect width="120.00" height="40.00" rx="8.00" ry="8.00" fill="#1D5C37" stroke="#17492C" stroke-width="1.50"/>
    <text x="60.00" y="24.55" text-anchor="middle" font-family="&quot;Segoe UI&quot;, Inter, Arial, sans-serif" font-size="13.00" fill="#E2E8F0">B</text>
  </g>
  <g transform="translate(384.00,24.00)">
    <rect width="120.00" height="40.00" rx="8.00" ry="8.00" fill="#7A3A1A" stroke="#612E14" stroke-width="1.50"/>
    <text x="60.00" y="24.55" text-anchor="middle" font-family="&quot;Segoe UI&quot;, Inter, Arial, sans-serif" font-size="13.00" fill="#E2E8F0">C</text>
  </g>
  <g transform="translate(564.00,24.00)">
    <rect width="120.00" height="40.00" rx="8.00" ry="8.00" fill="#5A2D82" stroke="#482468" stroke-width="1.50"/>
    <text x="60.00" y="24.55" text-anchor="middle" font-family="&quot;Segoe UI&quot;, Inter, Arial, sans-serif" font-size="13.00" fill="#E2E8F0">D</text>
  </g>
  <g transform="translate(744.00,24.00)">
    <rect width="120.00" height="40.00" rx="8.00" ry="8.00" fill="#1A5C5C" stroke="#144949" stroke-width="1.50"/>
    <text x="60.00" y="24.55" text-anchor="middle" font-family="&quot;Segoe UI&quot;, Inter, Arial, sans-serif" font-size="13.00" fill="#E2E8F0">E</text>
  </g>
</svg>
