<svg xmlns="http://www.w3.org/2000/svg" width="419.80" height="450.50" viewBox="0 0 419.80 450.50">
  <defs>
    <marker id="arrowhead" markerWidth="10" markerHeight="7" refX="9" refY="3.5" orient="auto">
      <polygon points="0 0, 10 3.5, 0 7" fill="#516074"/>
    </marker>
    <marker id="arrowhead-open" markerWidth="12" markerHeight="9" refX="11" refY="4.50" orient="auto">
      <polygon points="0 0, 12 4.50, 0 9" fill="#FCFCFD" stroke="#516074" stroke-width="1.50"/>
    </marker>
    <marker id="arrowhead-filled-diamond" markerWidth="14" markerHeight="9" refX="1" refY="4.50" orient="auto">
      <polygon points="1 4.50, 7 1, 13 4.50, 7 8" fill="#516074"/>
    </marker>
    <marker id="arrowhead-open-diamond" markerWidth="14" markerHeight="9" refX="1" refY="4.50" orient="auto">
      <polygon points="1 4.50, 7 1, 13 4.50, 7 8" fill="#FCFCFD" stroke="#516074" stroke-width="1.50"/>
    </marker>
  </defs>
  <rect width="419.80" height="450.50" fill="#FCFCFD" rx="8.00" ry="8.00"/>
  <text x="209.90" y="20.00" text-anchor="middle" font-family="&quot;Segoe UI&quot;, Inter, Arial, sans-serif" font-size="15.00" font-weight="bold" fill="#0F172A">Dashboard</text>
  <g transform="translate(24.00,24.00)">
    <line x1="0" y1="38.00" x2="320.00" y2="38.00" stroke="#C0C0C0" stroke-width="1.20"/>
    <rect x="0.00" y="0" width="106.67" height="38.00" fill="#FFFFFF" stroke="#C0C0C0" stroke-width="1.20"/>
    <line x1="1.00" y1="38.00" x2="105.67" y2="38.00" stroke="#FFFFFF" stroke-width="1.70"/>
    <text x="53.33" y="23.09" text-anchor="middle" font-family="&quot;Segoe UI&quot;, Inter, Arial, sans-serif" font-size="11.70" font-weight="bold" fill="#1A1A1A">Overview</text>
    <rect x="106.67" y="0" width="106.67" height="38.00" fill="#EBEBEB" stroke="#C0C0C0" stroke-width="1.20"/>
    <text x="160.00" y="23.09" text-anchor="middle" font-family="&quot;Segoe UI&quot;, Inter, Arial, sans-serif" font-size="11.70" fill="#707070">Analytics</text>
    <rect x="213.33" y="0" width="106.67" height="38.00" fill="#EBEBEB" stroke="#C0C0C0" stroke-width="1.20"/>
    <text x="266.67" y="23.09" text-anchor="middle" font-family="&quot;Segoe UI&quot;, Inter, Arial, sans-serif" font-size="11.70" fill="#707070">Settings</text>
  </g>
  <line x1="24.00" y1="72.00" x2="344.00" y2="72.00" stroke="#D4D4D4" stroke-width="1.20"/>
  <g transform="translate(36.00,94.00)">
    <rect x="0" y="0" width="117.80" height="105.90" rx="4.00" ry="4.00" fill="#FAFAFA" stroke="#C8C8C8" stroke-width="1.20"/>
    <text x="12.00" y="19.70" font-family="&quot;Segoe UI&quot;, Inter, Arial, sans-serif" font-size="11.70" font-weight="bold" fill="#707070">Users</text>
  </g>
  <text x="48.00" y="151.90" font-family="&quot;Segoe UI&quot;, Inter, Arial, sans-serif" font-size="16.00" font-weight="bold" fill="#1A1A1A">1,240</text>
  <text x="48.00" y="182.05" font-family="&quot;Segoe UI&quot;, Inter, Arial, sans-serif" font-size="13.00" fill="#707070">Total users</text>
  <g transform="translate(161.80,94.00)">
    <rect x="0" y="0" width="110.00" height="105.90" rx="4.00" ry="4.00" fill="#FAFAFA" stroke="#C8C8C8" stroke-width="1.20"/>
    <text x="12.00" y="19.70" font-family="&quot;Segoe UI&quot;, Inter, Arial, sans-serif" font-size="11.70" font-weight="bold" fill="#707070">Revenue</text>
  </g>
  <text x="173.80" y="151.90" font-family="&quot;Segoe UI&quot;, Inter, Arial, sans-serif" font-size="16.00" font-weight="bold" fill="#1A1A1A">$48,200</text>
  <text x="173.80" y="182.05" font-family="&quot;Segoe UI&quot;, Inter, Arial, sans-serif" font-size="13.00" fill="#707070">This month</text>
  <g transform="translate(279.80,94.00)">
    <rect x="0" y="0" width="104.00" height="105.90" rx="4.00" ry="4.00" fill="#FAFAFA" stroke="#C8C8C8" stroke-width="1.20"/>
    <text x="12.00" y="19.70" font-family="&quot;Segoe UI&quot;, Inter, Arial, sans-serif" font-size="11.70" font-weight="bold" fill="#707070">Orders</text>
  </g>
  <text x="291.80" y="151.90" font-family="&quot;Segoe UI&quot;, Inter, Arial, sans-serif" font-size="16.00" font-weight="bold" fill="#1A1A1A">386</text>
  <text x="291.80" y="182.05" font-family="&quot;Segoe UI&quot;, Inter, Arial, sans-serif" font-size="13.00" fill="#707070">Pending</text>
  <line x1="24.00" y1="221.90" x2="344.00" y2="221.90" stroke="#D4D4D4" stroke-width="1.20"/>
  <text x="24.00" y="254.90" font-family="&quot;Segoe UI&quot;, Inter, Arial, sans-serif" font-size="20.00" font-weight="bold" fill="#1A1A1A">Recent Activity</text>
  <text x="24.00" y="286.85" font-family="&quot;Segoe UI&quot;, Inter, Arial, sans-serif" font-size="13.00" fill="#707070">(( New )) Welcome to the dashboard!</text>
  <text x="24.00" y="315.65" font-family="&quot;Segoe UI&quot;, Inter, Arial, sans-serif" font-size="13.00" fill="#707070">Plain text description line</text>
  <g transform="translate(24.00,329.50)">
    <rect x="0" y="0" width="296.00" height="32.00" rx="4.00" ry="4.00" fill="#FFFFFF" stroke="#9A9A9A" stroke-width="1.20"/>
    <text x="8" y="20.09" font-family="&quot;Segoe UI&quot;, Inter, Arial, sans-serif" font-size="11.70" fill="#B0B0B0">Search</text>
  </g>
  <g transform="translate(24.00,369.50)">
    <rect x="0" y="0" width="128.00" height="34.00" rx="4.00" ry="4.00" fill="#3A3A3A" stroke="none"/>
    <text x="64.00" y="21.55" text-anchor="middle" font-family="&quot;Segoe UI&quot;, Inter, Arial, sans-serif" font-size="13.00" fill="#FFFFFF">View All</text>
  </g>
</svg>
