<svg xmlns="http://www.w3.org/2000/svg" width="344.00" height="279.00" viewBox="0 0 344.00 279.00">
  <defs>
    <marker id="arrowhead" markerWidth="10" markerHeight="7" refX="9" refY="3.5" orient="auto">
      <polygon points="0 0, 10 3.5, 0 7" fill="#516074"/>
    </marker>
    <marker id="arrowhead-open" markerWidth="12" markerHeight="9" refX="11" refY="4.50" orient="auto">
      <polygon points="0 0, 12 4.50, 0 9" fill="#FCFCFD" stroke="#516074" stroke-width="1.50"/>
    </marker>
    <marker id="arrowhead-filled-diamond" markerWidth="14" markerHeight="9" refX="1" refY="4.50" orient="auto">
      <polygon points="1 4.50, 7 1, 13 4.50, 7 8" fill="#516074"/>
    </marker>
    <marker id="arrowhead-open-diamond" markerWidth="14" markerHeight="9" refX="1" refY="4.50" orient="auto">
      <polygon points="1 4.50, 7 1, 13 4.50, 7 8" fill="#FCFCFD" stroke="#516074" stroke-width="1.50"/>
    </marker>
  </defs>
  <rect width="344.00" height="279.00" fill="#FCFCFD" rx="8.00" ry="8.00"/>
  <text x="172.00" y="20.00" text-anchor="middle" font-family="&quot;Segoe UI&quot;, Inter, Arial, sans-serif" font-size="15.00" font-weight="bold" fill="#0F172A">Login Screen</text>
  <g transform="translate(24.00,24.00)">
    <rect x="0" y="0" width="296.00" height="56.00" rx="0.00" ry="0.00" fill="#EBEBEB" stroke="#C8C8C8" stroke-width="1.20"/>
  </g>
  <text x="36.00" y="59.00" font-family="&quot;Segoe UI&quot;, Inter, Arial, sans-serif" font-size="20.00" font-weight="bold" fill="#1A1A1A">Login</text>
  <g transform="translate(24.00,88.00)">
    <rect x="0" y="0" width="296.00" height="32.00" rx="4.00" ry="4.00" fill="#FFFFFF" stroke="#9A9A9A" stroke-width="1.20"/>
    <text x="8" y="20.09" font-family="&quot;Segoe UI&quot;, Inter, Arial, sans-serif" font-size="11.70" fill="#B0B0B0">Username</text>
  </g>
  <g transform="translate(24.00,128.00)">
    <rect x="0" y="0" width="296.00" height="32.00" rx="4.00" ry="4.00" fill="#FFFFFF" stroke="#9A9A9A" stroke-width="1.20"/>
    <text x="8" y="20.09" font-family="&quot;Segoe UI&quot;, Inter, Arial, sans-serif" font-size="11.70" fill="#B0B0B0">Password</text>
  </g>
  <g transform="translate(24.00,168.00)">
    <rect x="0" y="4.00" width="14.00" height="14.00" rx="2" ry="2" fill="#FFFFFF" stroke="#808080" stroke-width="1.20"/>
    <text x="20.00" y="15.09" font-family="&quot;Segoe UI&quot;, Inter, Arial, sans-serif" font-size="11.70" fill="#1A1A1A">Remember me</text>
  </g>
  <g transform="translate(24.00,198.00)">
    <rect x="0" y="0" width="128.00" height="34.00" rx="4.00" ry="4.00" fill="#3A3A3A" stroke="none"/>
    <text x="64.00" y="21.55" text-anchor="middle" font-family="&quot;Segoe UI&quot;, Inter, Arial, sans-serif" font-size="13.00" fill="#FFFFFF">Login</text>
  </g>
</svg>
